<?xml version="1.0" encoding="UTF-8"?>
<svg width="69px" height="20px" viewBox="0 0 69 20" version="1.1" xmlns="http://www.w3.org/2000/svg" xmlns:xlink="http://www.w3.org/1999/xlink">
    <title>Fill-49</title>
    <g id="Page-1" stroke="none" stroke-width="1" fill="none" fill-rule="evenodd">
        <g id="2Gama" fill="#FFFFFF" fill-rule="nonzero">
            <path d="M8.88397138,8.6723093 C9.63045097,7.94256357 10.8387485,7.94256357 11.5867423,8.6723093 L11.5867423,8.6723093 L15.5134066,12.5073928 C15.6651314,12.6056767 15.8112603,12.7154078 15.9504846,12.8365798 L15.9504846,12.8365798 L20,16.7413158 L17.2686283,19.375 L10.625,12.9665654 C11.9472544,11.6903616 13.9878815,11.5343533 15.4903042,12.4925435 C13.9891788,11.1596166 11.6673922,11.2016931 10.2202153,12.6193012 L10.2202153,12.6193012 L3.32171428,19.375 L0.625,16.7365177 L8.88397138,8.6723093 Z M44.5074572,8.6723093 C45.255451,7.94256357 46.4637485,7.94256357 47.2117423,8.6723093 L47.2117423,8.6723093 L51.25,12.6193012 C49.7570408,11.1583295 47.3381744,11.1583295 45.8437011,12.6193012 L45.8437011,12.6193012 L38.9467143,19.375 L36.25,16.7365177 L44.5074572,8.6723093 Z M45.625,12.9672672 C47.0873037,11.5538293 49.4306703,11.5139517 50.9504846,12.8372959 L50.9504846,12.8372959 L55,16.7416042 L52.2693951,19.375 L45.625,12.9672672 Z M56.874999,11.875 C56.8734755,13.951717 58.598472,15.6346765 60.7264765,15.6316991 L60.7264765,15.6316991 L68.75,15.6242557 L68.7461836,19.375 L58.8022658,19.3690453 C57.7397901,19.3690453 56.8757653,18.5279377 56.874999,17.4888349 L56.874999,17.4888349 L56.874999,11.875 Z M34.8045278,8.125 L37.5,10.7636125 L29.2417092,18.8282188 C28.4951542,19.5572604 27.2852203,19.5572604 26.5386654,18.8282188 L26.5386654,18.8282188 L22.5,14.8810322 C23.9931099,16.3413358 26.4137348,16.3413358 27.9053304,14.8810322 L27.9053304,14.8810322 L34.8045278,8.125 Z M21.4800613,8.125 L28.125,14.5338513 C26.6633436,15.9460587 24.3182515,15.9859432 22.7990798,14.6623681 L22.7990798,14.6623681 L18.75,10.7588555 L21.4800613,8.125 Z M60.625,8.125 L60.6175625,15.0000003 C58.6109183,15.000721 56.9746628,13.4709398 56.875,11.545911 L56.875,11.545911 L56.8772313,8.12716376 L60.625,8.125 Z M27.5938626,1.875 C28.0774429,1.875 28.4994493,2.05112675 28.8463656,2.41645516 C29.1992891,2.771016 29.375,3.23017613 29.375,3.79239732 C29.375,4.35615675 29.1992891,4.81377865 28.8463656,5.17833795 C28.4994493,5.53443701 28.0774429,5.71133287 27.5938626,5.71133287 C26.9781237,5.71133287 26.5080597,5.48829026 26.1761614,5.03759037 L26.1761614,6.875 L25.625,6.875 L25.625,1.96344793 L26.1761614,1.96344793 L26.1761614,2.5487425 C26.5080597,2.0972735 26.9781237,1.875 27.5938626,1.875 Z M11.9086968,0.625 C12.9892662,0.625 13.8653832,1.14864613 14.2152241,2.01915187 L13.698035,2.19817619 C13.3527374,1.51490004 12.7045472,1.15535954 11.9086968,1.15535954 C11.3612184,1.15535954 10.8947637,1.35079442 10.5214486,1.73196703 C10.1504051,2.11164777 9.95958277,2.57263539 9.95958277,3.12462703 C9.95958277,3.67811055 10.1504051,4.14581158 10.5290209,4.52698419 C10.915209,4.90741086 11.3831781,5.09389452 11.9367144,5.09389452 C12.4493601,5.09389452 12.8718954,4.93650231 13.2149212,4.62022602 C13.5579471,4.30394972 13.7623997,3.90114501 13.822221,3.40509846 L11.6610821,3.40509846 L11.6610821,2.88741981 L14.3689421,2.88741981 C14.375,2.95231613 14.375,3.03287707 14.375,3.13283231 C14.375,3.84370804 14.1402582,4.43225048 13.6828904,4.91412427 C13.2232508,5.38853871 12.6379108,5.625 11.9245987,5.625 C11.2067431,5.625 10.6039868,5.38257124 10.1133008,4.90069745 C9.62488642,4.41807773 9.375,3.82282187 9.375,3.12462703 C9.375,2.42717813 9.61655687,1.83266821 10.1057285,1.35079442 C10.5949,0.869666567 11.1999281,0.625 11.9086968,0.625 Z M18.4657191,1.875 C18.5811037,1.875 18.6755853,1.88281902 18.75,1.90549416 L18.7023411,2.45595288 C18.6521739,2.44735196 18.5719064,2.44735196 18.4657191,2.44735196 C17.4439799,2.44735196 16.8720736,3.14793578 16.8720736,4.1956839 L16.8720736,5.625 L16.25,5.625 L16.25,1.91331318 L16.8720736,1.91331318 L16.8720736,2.82422852 C17.243311,2.19167014 17.7750836,1.875 18.4657191,1.875 Z M20.5209505,1.875 L20.5209505,3.96124589 C20.5209505,4.64432566 20.8949663,5.09765625 21.4433352,5.09765625 C22.1548088,5.09765625 22.6019404,4.5626028 22.6019404,3.63435444 L22.6019404,1.875 L23.125,1.875 L23.125,5.5286287 L22.6019404,5.5286287 L22.6019404,4.93421053 C22.3165073,5.39525082 21.8982002,5.625 21.3428009,5.625 C20.9420697,5.625 20.6165636,5.48545436 20.3648763,5.19402755 C20.1223285,4.90414268 20,4.53407689 20,4.06609786 L20,1.875 L20.5209505,1.875 Z M33.127975,1.875 C33.6515768,1.875 34.0963407,2.05001509 34.4555732,2.40608027 C34.8207557,2.75535607 35,3.19817441 35,3.74283343 C35,4.28900121 34.8207557,4.73860893 34.4555732,5.09467411 C34.0963407,5.44923054 33.6515768,5.625 33.127975,5.625 C32.5976795,5.625 32.1536593,5.44923054 31.7884768,5.09467411 C31.4292443,4.73860893 31.25,4.28900121 31.25,3.74283343 C31.25,3.19817441 31.4292443,2.75535607 31.7884768,2.40608027 C32.1536593,2.05001509 32.5976795,1.875 33.127975,1.875 Z M27.5060072,2.37184664 C27.1530837,2.37184664 26.8399579,2.50413398 26.5718863,2.771016 C26.3060673,3.02943778 26.1761614,3.37169282 26.1761614,3.79239732 C26.1761614,4.20848716 26.3060673,4.54920397 26.5718863,4.81377865 C26.8399579,5.07450777 27.1530837,5.20833333 27.5060072,5.20833333 C27.8822087,5.20833333 28.2020925,5.08219889 28.4551462,4.82377711 C28.7081998,4.56381711 28.8396075,4.21540917 28.8396075,3.79239732 C28.8396075,3.37169282 28.7081998,3.02328488 28.4551462,2.76332487 C28.2020925,2.50413398 27.8822087,2.37184664 27.5060072,2.37184664 Z M33.127975,2.36232649 C32.7546113,2.36232649 32.4407477,2.49207906 32.1744843,2.75535607 C31.9119397,3.01108932 31.781783,3.34301448 31.781783,3.74283343 C31.781783,4.15019614 31.9119397,4.48513881 32.1744843,4.74539831 C32.4407477,5.00716657 32.7546113,5.13842788 33.127975,5.13842788 C33.4939012,5.13842788 33.8092523,5.00716657 34.0680781,4.74539831 C34.3335978,4.48513881 34.462267,4.15019614 34.462267,3.74283343 C34.462267,3.34301448 34.3335978,3.01108932 34.0680781,2.75535607 C33.8092523,2.49207906 33.4939012,2.36232649 33.127975,2.36232649 Z" id="Fill-49"></path>
        </g>
    </g>
</svg>