<?xml version="1.0" encoding="utf-8"?>
<!-- Generator: Adobe Illustrator 19.2.1, SVG Export Plug-In . SVG Version: 6.00 Build 0)  -->
<svg version="1.1" id="Capa_1" xmlns="http://www.w3.org/2000/svg" xmlns:xlink="http://www.w3.org/1999/xlink" x="0px" y="0px"
	 viewBox="0 0 510.2 510.2" style="enable-background:new 0 0 510.2 510.2;" xml:space="preserve">
<style type="text/css">
	.st0{fill:#FFFFFF;}
</style>
<g>
	<path class="st0" d="M393.2,210.6c10.5,0.5,18,1.1,25.5,1.2c38.5,1,65.9,26.3,66.7,64.9c1.1,55.4,1.1,110.9,0,166.4
		c-0.8,39.6-28.5,65.1-68.7,65.2c-107.8,0.2-215.7,0.2-323.5,0c-38.9-0.1-66.6-25.3-67.5-63.9c-1.4-56.2-1.3-112.5-0.1-168.7
		c0.9-38.2,28.7-63.1,67.6-63.9c6.8-0.1,13.6,0,24.5,0c0-25.9-0.7-50.2,0.1-74.4c2.1-63.7,45.8-117,107.1-131.6
		c59.3-14.1,124,14.5,151.4,70.9c10.1,20.7,13.4,45.4,16.3,68.7C395.3,166.5,393.2,188.1,393.2,210.6z M257.8,255.3
		c-51.6,0-103.1-0.2-154.7,0.1c-27.3,0.1-33.3,5.8-33.4,32c-0.3,48.5-0.3,97,0,145.4c0.1,25.5,6.2,31.9,31.1,32
		c103.1,0.3,206.2,0.3,309.4,0c24.9-0.1,31-6.5,31.1-32c0.3-46.9,0.2-93.9,0.1-140.8c-0.1-31.4-5-36.6-35.8-36.7
		C356.3,255.2,307,255.3,257.8,255.3z M348.9,210.5c0-25.5,0.5-49.9-0.1-74.2c-1.2-46.2-37.1-83.7-84-88.7
		c-45.3-4.9-92.4,25.8-99.7,70.5c-4.8,29.6-0.9,60.7-0.9,92.4C225.3,210.5,285.5,210.5,348.9,210.5z"/>
</g>
<ellipse transform="matrix(0.4419 -0.8971 0.8971 0.4419 -140.0405 520.8551)" class="st0" cx="348.6" cy="373" rx="23" ry="23"/>
<ellipse transform="matrix(0.4419 -0.8971 0.8971 0.4419 -246.8552 349.1613)" class="st0" cx="157.2" cy="373" rx="23" ry="23"/>
<ellipse transform="matrix(0.4419 -0.8971 0.8971 0.4419 -193.4478 435.0082)" class="st0" cx="252.9" cy="373" rx="23" ry="23"/>
</svg>
