<svg xmlns="http://www.w3.org/2000/svg" width="10" height="118" viewBox="0 0 10 118">
    <g fill="none" fill-rule="evenodd">
        <g>
            <g>
                <path fill="#FFF" d="M2.655 113.921L6.823 115.542 2.655 117.162 2.655 117.734 7.525 115.776 7.525 115.325 2.655 113.367zM2.655 111.062L7.49 111.062 7.49 110.551 2.655 110.551zM5.09 108.091h-.017c-1.326 0-2.496-.918-2.496-2.278 0-.772.235-1.249.642-1.699l.415.33c-.328.355-.554.745-.554 1.386 0 1.005.901 1.732 1.975 1.732h.018c1.152 0 2.01-.701 2.01-1.801 0-.521-.217-1.005-.486-1.317H5.402v1.386h-.494v-1.88h1.924c.407.424.745 1.066.745 1.828 0 1.43-1.11 2.313-2.487 2.313z" transform="translate(-16 -890) translate(16 890)"/>
                <path d="M9.249.77H.515 9.25z" transform="translate(-16 -890) translate(16 890)"/>
                <path fill="#FFF" d="M2.655 101.393L7.49 101.393 7.49 100.882 2.655 100.882zM2.656 98.223L2.656 97.703 6.987 97.703 6.987 95.147 7.49 95.147 7.49 98.223zM5.722 89.897l-2.46 1.03 2.46 1.04v-2.07zM2.621 91.17v-.486l4.869-2.07v.545l-1.273.537v2.478l1.273.538v.528l-4.869-2.07zM6.988 84.776c0-1.144-.832-1.88-1.898-1.88h-.017c-1.066 0-1.915.736-1.915 1.88v1.075h3.83v-1.075zm-4.332 1.586v-1.586c0-1.42 1.048-2.408 2.4-2.408h.017c1.36 0 2.417.987 2.417 2.408v1.586H2.656zM5.09 76.017h-.017c-1.1 0-1.993.754-1.993 1.793 0 1.04.883 1.785 1.975 1.785h.018c1.1 0 1.993-.762 1.993-1.802s-.884-1.776-1.976-1.776m0 4.107h-.017c-1.335 0-2.496-.945-2.496-2.331 0-1.377 1.153-2.305 2.478-2.305h.018c1.334 0 2.504.937 2.504 2.322 0 1.386-1.161 2.314-2.487 2.314M3.912 72.473l-.382-.303c.252-.268.399-.546.399-.892 0-.312-.156-.511-.381-.511H3.53c-.207 0-.329.12-.46.641-.155.606-.345.953-.909.953-.519 0-.883-.407-.883-.97 0-.416.139-.746.381-1.032l.399.27c-.2.25-.312.51-.312.77 0 .286.164.46.363.46h.01c.233 0 .337-.13.476-.676.156-.599.381-.91.883-.91h.018c.563 0 .9.416.9 1.013 0 .433-.155.84-.484 1.187M3.063 69.71H1.32v-.503h1.725c.563 0 .866-.268.866-.718 0-.443-.286-.71-.85-.71h-1.74v-.504h1.724c.9 0 1.35.477 1.35 1.222s-.45 1.212-1.333 1.212M2.898 65.5c0-.373-.225-.616-.546-.616-.364 0-.546.243-.546.615v.58h1.092v-.58zm-1.577 1.082v-1.126c0-.659.407-1.075 1.014-1.075h.008c.685 0 1.031.512 1.031 1.135v.563h.98v.503H1.32zM1.321 63.853L1.321 61.748 1.798 61.748 1.798 63.35 2.586 63.35 2.586 61.929 3.063 61.929 3.063 63.35 3.877 63.35 3.877 61.722 4.354 61.722 4.354 63.853zM2.82 59.884c0-.354-.19-.589-.502-.589h-.009c-.32 0-.502.226-.502.59v.727H2.82v-.728zm-1.498 1.23V59.85c0-.364.111-.641.303-.823.164-.147.39-.235.658-.235.502 0 .797.278.919.677l1.151-.771v.589l-1.057.702v.623h1.057v.503H1.322zM1.321 58.143L4.354 58.143 4.354 57.64 1.321 57.64zM1.321 56.869L1.321 56.402 3.418 54.886 1.321 54.886 1.321 54.392 4.354 54.392 4.354 54.808 2.196 56.376 4.354 56.376 4.354 56.869zM1.815 52.945L1.815 53.846 1.321 53.846 1.321 51.541 1.815 51.541 1.815 52.442 4.353 52.442 4.353 52.945zM1.321 51.004L1.321 48.898 1.798 48.898 1.798 50.501 2.586 50.501 2.586 49.08 3.063 49.08 3.063 50.501 3.877 50.501 3.877 48.873 4.354 48.873 4.354 51.004zM1.321 48.266L1.321 47.798 3.418 46.282 1.321 46.282 1.321 45.788 4.354 45.788 4.354 46.205 2.196 47.772 4.354 47.772 4.354 48.266zM3.868 43.977c0-.589-.424-.978-1.022-.978h-.009c-.589 0-1.03.39-1.03.978v.564h2.061v-.564zm-2.547 1.066v-1.066c0-.892.65-1.507 1.507-1.507h.01c.848 0 1.516.615 1.516 1.507v1.066H1.32zM1.321 41.846L1.321 39.741 1.798 39.741 1.798 41.343 2.586 41.343 2.586 39.922 3.063 39.922 3.063 41.343 3.877 41.343 3.877 39.715 4.354 39.715 4.354 41.846zM1.321 39.108L1.321 38.641 3.418 37.124 1.321 37.124 1.321 36.63 4.354 36.63 4.354 37.047 2.196 38.615 4.354 38.615 4.354 39.108zM2.846 36.007h-.009c-.866 0-1.568-.607-1.568-1.465 0-.52.2-.84.476-1.11l.39.322c-.224.226-.372.468-.372.797 0 .537.468.936 1.066.936h.008c.59 0 1.074-.399 1.074-.936 0-.355-.146-.571-.39-.823l.347-.321c.33.304.537.624.537 1.153 0 .831-.684 1.447-1.559 1.447M1.321 32.845L4.354 32.845 4.354 32.342 1.321 32.342zM3.15 29.855l-1.213.494 1.212.485v-.979zm-1.855.72v-.468l3.059-1.249v.53l-.737.285v1.343l.737.295v.511l-3.059-1.247zM1.321 27.126L1.321 25.012 1.806 25.012 1.806 26.623 2.629 26.623 2.629 25.194 3.115 25.194 3.115 26.623 4.354 26.623 4.354 27.126zM1.321 24.423L4.354 24.423 4.354 23.92 1.321 23.92zM1.321 23.158L1.321 22.69 3.418 21.174 1.321 21.174 1.321 20.68 4.354 20.68 4.354 21.096 2.196 22.664 4.354 22.664 4.354 23.158zM3.15 18.211l-1.213.493 1.212.486v-.979zm-1.855.72v-.469l3.059-1.248v.529l-.737.286v1.342l.737.296v.51L1.295 18.93zM1.321 16.704L1.321 16.236 3.418 14.719 1.321 14.719 1.321 14.225 4.354 14.225 4.354 14.641 2.196 16.21 4.354 16.21 4.354 16.704zM2.846 13.602h-.009c-.866 0-1.568-.607-1.568-1.465 0-.52.2-.84.476-1.11l.39.322c-.224.225-.372.468-.372.797 0 .537.468.936 1.066.936h.008c.59 0 1.074-.399 1.074-.936 0-.355-.146-.572-.39-.823l.347-.32c.33.303.537.623.537 1.152 0 .831-.684 1.447-1.559 1.447M1.321 10.439L4.354 10.439 4.354 9.936 1.321 9.936zM1.321 9.174L1.321 7.069 1.798 7.069 1.798 8.672 2.586 8.672 2.586 7.25 3.063 7.25 3.063 8.672 3.877 8.672 3.877 7.043 4.354 7.043 4.354 9.174zM2.82 5.206c0-.355-.19-.59-.502-.59h-.009c-.32 0-.502.227-.502.59v.728H2.82v-.728zm-1.498 1.23V5.172c0-.363.111-.64.303-.823.164-.146.39-.234.658-.234.502 0 .797.277.919.676l1.151-.771v.589l-1.057.703v.623h1.057v.503H1.322zM3.15 1.767l-1.213.494 1.212.484v-.978zm-1.855.719v-.468L4.354.77v.528l-.737.286v1.343l.737.295v.511L1.295 2.486zM7.863 50.406c0-.589-.434-.979-1.023-.979h-.008c-.598 0-1.032.39-1.032.979v.564h2.063v-.564zm-2.548 1.066v-1.066c0-.892.659-1.508 1.508-1.508h.009c.857 0 1.516.616 1.516 1.508v1.066H5.315zM5.315 48.275L5.315 46.17 5.792 46.17 5.792 47.772 6.58 47.772 6.58 46.351 7.057 46.351 7.057 47.772 7.871 47.772 7.871 46.144 8.348 46.144 8.348 48.275zM6.84 44.437h-.009c-.858 0-1.568-.598-1.568-1.465 0-.52.191-.84.468-1.109l.399.321c-.225.226-.382.468-.382.797 0 .538.485.936 1.075.936h.008c.598 0 1.083-.398 1.083-.936 0-.355-.155-.58-.398-.823l.346-.32c.33.302.537.623.537 1.152 0 .832-.692 1.447-1.559 1.447M6.84 39.065h-.009c-.589 0-1.083.398-1.083.962 0 .563.485.961 1.075.961h.008c.59 0 1.083-.407 1.083-.97 0-.564-.485-.953-1.074-.953m0 2.443h-.009c-.858 0-1.568-.614-1.568-1.49 0-.867.71-1.481 1.56-1.481h.008c.858 0 1.568.614 1.568 1.49 0 .875-.71 1.481-1.559 1.481M5.315 37.921L5.315 37.419 7.863 37.419 7.863 35.929 8.348 35.929 8.348 37.921zM6.84 33.234h-.009c-.589 0-1.083.399-1.083.962 0 .564.485.962 1.075.962h.008c.59 0 1.083-.407 1.083-.971 0-.563-.485-.953-1.074-.953m0 2.443h-.009c-.858 0-1.568-.615-1.568-1.49 0-.866.71-1.482 1.56-1.482h.008c.858 0 1.568.616 1.568 1.49 0 .876-.71 1.482-1.559 1.482M5.315 32.082L5.315 31.544 6.754 30.687 5.315 29.82 5.315 29.283 8.348 29.283 8.348 29.786 6.173 29.786 7.603 30.687 7.603 30.696 6.182 31.588 8.348 31.588 8.348 32.082zM7.88 27.213c0-.338-.148-.546-.416-.546h-.018c-.25 0-.398.191-.398.59v.788h.832v-.832zm-1.282.147c0-.32-.139-.537-.416-.537h-.009c-.234 0-.39.182-.39.502v.72h.815v-.685zm-1.283 1.178v-1.273c0-.33.096-.581.27-.745.129-.13.302-.19.501-.19h.01c.363 0 .553.19.675.406.121-.338.33-.563.736-.563h.01c.536 0 .83.415.83 1.049v1.316H5.316zM5.315 25.567L8.348 25.567 8.348 25.064 5.315 25.064zM7.143 22.578l-1.212.494 1.212.484v-.978zm-1.845.719v-.468l3.05-1.248v.528l-.728.286v1.343l.728.295v.511l-3.05-1.247zM8.521 117.985L9.249 117.985 9.249 75.281 8.521 75.281zM.515 117.985L1.243 117.985 1.243 75.281.515 75.281z" transform="translate(-16 -890) translate(16 890)"/>
            </g>
        </g>
    </g>
</svg>
