<?xml version="1.0" encoding="utf-8"?>
<!-- Generator: Adobe Illustrator 19.2.1, SVG Export Plug-In . SVG Version: 6.00 Build 0)  -->
<svg version="1.1" id="Capa_1" xmlns="http://www.w3.org/2000/svg" xmlns:xlink="http://www.w3.org/1999/xlink" x="0px" y="0px"
	 viewBox="0 0 131 12" style="enable-background:new 0 0 131 12;" xml:space="preserve">
<title>logo vigilado</title>
<g id="Registro-mobile">
	<g id="_x31_-Ingreso-Registro-M" transform="translate(-173.000000, -649.000000)">
		<g id="Group-6" transform="translate(0.000000, 624.000000)">
			
				<g id="logo-vigilado" transform="translate(238.500000, 30.900000) rotate(-270.000000) translate(-238.500000, -30.900000) translate(233.000000, -34.000000)">
				<polygon id="Fill-1" points="2.9,125.3 7.5,127.1 2.9,128.9 2.9,129.5 8.3,127.4 8.3,126.9 2.9,124.7 				"/>
				<polygon id="Fill-2" points="2.9,122.2 8.2,122.2 8.2,121.6 2.9,121.6 				"/>
				<path id="Fill-3" d="M5.6,118.9L5.6,118.9c-1.5,0-2.8-1-2.8-2.5c0-0.8,0.3-1.4,0.7-1.9l0.5,0.4c-0.4,0.4-0.6,0.8-0.6,1.5
					c0,1.1,1,1.9,2.2,1.9h0c1.3,0,2.2-0.8,2.2-2c0-0.6-0.2-1.1-0.5-1.4H5.9v1.5H5.4v-2.1h2.1c0.4,0.5,0.8,1.2,0.8,2
					C8.3,117.9,7.1,118.9,5.6,118.9z"/>
				<path id="Clip-6" d="M10.2,0.8H0.6H10.2z"/>
				<polygon id="Fill-5" points="2.9,111.5 8.2,111.5 8.2,111 2.9,111 				"/>
				<polygon id="Fill-7" points="2.9,108 2.9,107.5 7.7,107.5 7.7,104.7 8.2,104.7 8.2,108 				"/>
				<path id="Fill-8" d="M6.3,98.9L3.6,100l2.7,1.1V98.9z M2.9,100.3v-0.5l5.4-2.3v0.6l-1.4,0.6v2.7l1.4,0.6v0.6L2.9,100.3z"/>
				<path id="Fill-9" d="M7.7,93.3c0-1.3-0.9-2.1-2.1-2.1h0c-1.2,0-2.1,0.8-2.1,2.1v1.2h4.2V93.3z M2.9,95v-1.7
					c0-1.6,1.2-2.6,2.6-2.6h0c1.5,0,2.7,1.1,2.7,2.6V95H2.9z"/>
				<path id="Fill-10" d="M5.6,83.6L5.6,83.6c-1.2,0-2.2,0.8-2.2,2c0,1.1,1,2,2.2,2h0c1.2,0,2.2-0.8,2.2-2
					C7.8,84.4,6.8,83.6,5.6,83.6 M5.6,88.1L5.6,88.1c-1.5,0-2.8-1-2.8-2.6c0-1.5,1.3-2.5,2.7-2.5h0c1.5,0,2.8,1,2.8,2.6
					S7.1,88.1,5.6,88.1"/>
				<path id="Fill-11" d="M4.3,79.7l-0.4-0.3c0.3-0.3,0.4-0.6,0.4-1c0-0.3-0.2-0.6-0.4-0.6h0c-0.2,0-0.4,0.1-0.5,0.7
					c-0.2,0.7-0.4,1-1,1c-0.6,0-1-0.4-1-1.1c0-0.5,0.2-0.8,0.4-1.1l0.4,0.3C2,78,1.9,78.3,1.9,78.5c0,0.3,0.2,0.5,0.4,0.5h0
					c0.3,0,0.4-0.1,0.5-0.7c0.2-0.7,0.4-1,1-1h0c0.6,0,1,0.5,1,1.1C4.8,78.9,4.7,79.3,4.3,79.7"/>
				<path id="Fill-12" d="M3.4,76.7H1.5v-0.6h1.9c0.6,0,1-0.3,1-0.8c0-0.5-0.3-0.8-0.9-0.8H1.5V74h1.9c1,0,1.5,0.5,1.5,1.3
					S4.3,76.7,3.4,76.7"/>
				<path id="Fill-13" d="M3.2,72c0-0.4-0.2-0.7-0.6-0.7C2.2,71.4,2,71.6,2,72v0.6h1.2V72z M1.5,73.2V72c0-0.7,0.4-1.2,1.1-1.2h0
					c0.8,0,1.1,0.6,1.1,1.2v0.6h1.1v0.6H1.5z"/>
				<polygon id="Fill-14" points="1.5,70.2 1.5,67.9 2,67.9 2,69.7 2.8,69.7 2.8,68.1 3.4,68.1 3.4,69.7 4.3,69.7 4.3,67.9 
					4.8,67.9 4.8,70.2 				"/>
				<path id="Fill-15" d="M3.1,65.9c0-0.4-0.2-0.6-0.6-0.6h0c-0.4,0-0.6,0.2-0.6,0.6v0.8h1.1V65.9z M1.5,67.2v-1.4
					c0-0.4,0.1-0.7,0.3-0.9c0.2-0.2,0.4-0.3,0.7-0.3c0.6,0,0.9,0.3,1,0.7l1.3-0.8v0.6L3.6,66v0v0.7h1.2v0.6H1.5z"/>
				<polygon id="Fill-16" points="1.5,64 4.8,64 4.8,63.4 1.5,63.4 				"/>
				<polygon id="Fill-17" points="1.5,62.6 1.5,62 3.8,60.4 1.5,60.4 1.5,59.8 4.8,59.8 4.8,60.3 2.4,62 4.8,62 4.8,62.6 				"/>
				<polygon id="Fill-18" points="2,58.2 2,59.2 1.5,59.2 1.5,56.7 2,56.7 2,57.7 4.8,57.7 4.8,58.2 				"/>
				<polygon id="Fill-19" points="1.5,56.1 1.5,53.8 2,53.8 2,55.6 2.8,55.6 2.8,54 3.4,54 3.4,55.6 4.3,55.6 4.3,53.8 4.8,53.8 
					4.8,56.1 				"/>
				<polygon id="Fill-20" points="1.5,53.1 1.5,52.6 3.8,50.9 1.5,50.9 1.5,50.4 4.8,50.4 4.8,50.8 2.4,52.5 4.8,52.5 4.8,53.1 				
					"/>
				<path id="Fill-21" d="M4.3,48.4c0-0.6-0.5-1.1-1.1-1.1h0c-0.6,0-1.1,0.4-1.1,1.1V49h2.3V48.4z M1.5,49.5v-1.2
					c0-1,0.7-1.7,1.7-1.7h0c0.9,0,1.7,0.7,1.7,1.7v1.2H1.5z"/>
				<polygon id="Fill-22" points="1.5,46 1.5,43.7 2,43.7 2,45.5 2.8,45.5 2.8,43.9 3.4,43.9 3.4,45.5 4.3,45.5 4.3,43.7 4.8,43.7 
					4.8,46 				"/>
				<polygon id="Fill-23" points="1.5,43 1.5,42.5 3.8,40.8 1.5,40.8 1.5,40.3 4.8,40.3 4.8,40.8 2.4,42.5 4.8,42.5 4.8,43 				"/>
				<path id="Fill-24" d="M3.1,39.6L3.1,39.6c-1,0-1.7-0.7-1.7-1.6c0-0.6,0.2-0.9,0.5-1.2l0.4,0.4c-0.2,0.2-0.4,0.5-0.4,0.9
					c0,0.6,0.5,1,1.2,1h0c0.6,0,1.2-0.4,1.2-1c0-0.4-0.2-0.6-0.4-0.9l0.4-0.4c0.4,0.3,0.6,0.7,0.6,1.3C4.8,38.9,4.1,39.6,3.1,39.6"
					/>
				<polygon id="Fill-25" points="1.5,36.1 4.8,36.1 4.8,35.6 1.5,35.6 				"/>
				<path id="Fill-26" d="M3.5,32.8l-1.3,0.5l1.3,0.5V32.8z M1.4,33.6v-0.5l3.4-1.4v0.6L4,32.6v1.5l0.8,0.3V35L1.4,33.6z"/>
				<polygon id="Fill-27" points="1.5,29.8 1.5,27.5 2,27.5 2,29.3 2.9,29.3 2.9,27.7 3.4,27.7 3.4,29.3 4.8,29.3 4.8,29.8 				"/>
				<polygon id="Fill-28" points="1.5,26.9 4.8,26.9 4.8,26.3 1.5,26.3 				"/>
				<polygon id="Fill-29" points="1.5,25.5 1.5,25 3.8,23.3 1.5,23.3 1.5,22.7 4.8,22.7 4.8,23.2 2.4,24.9 4.8,24.9 4.8,25.5 				
					"/>
				<path id="Fill-30" d="M3.5,20l-1.3,0.5l1.3,0.5V20z M1.4,20.8v-0.5l3.4-1.4v0.6L4,19.8v1.5l0.8,0.3v0.6L1.4,20.8z"/>
				<polygon id="Fill-31" points="1.5,18.4 1.5,17.9 3.8,16.2 1.5,16.2 1.5,15.6 4.8,15.6 4.8,16.1 2.4,17.8 4.8,17.8 4.8,18.4 				
					"/>
				<path id="Fill-32" d="M3.1,15L3.1,15c-1,0-1.7-0.7-1.7-1.6c0-0.6,0.2-0.9,0.5-1.2l0.4,0.4c-0.2,0.2-0.4,0.5-0.4,0.9
					c0,0.6,0.5,1,1.2,1h0c0.6,0,1.2-0.4,1.2-1c0-0.4-0.2-0.6-0.4-0.9l0.4-0.4c0.4,0.3,0.6,0.7,0.6,1.3C4.8,14.3,4.1,15,3.1,15"/>
				<polygon id="Fill-33" points="1.5,11.5 4.8,11.5 4.8,10.9 1.5,10.9 				"/>
				<polygon id="Fill-34" points="1.5,10.1 1.5,7.8 2,7.8 2,9.5 2.8,9.5 2.8,8 3.4,8 3.4,9.5 4.3,9.5 4.3,7.7 4.8,7.7 4.8,10.1 				
					"/>
				<path id="Fill-35" d="M3.1,5.7c0-0.4-0.2-0.6-0.6-0.6h0C2.2,5.1,2,5.3,2,5.7v0.8h1.1V5.7z M1.5,7.1V5.7c0-0.4,0.1-0.7,0.3-0.9
					C2,4.6,2.2,4.5,2.5,4.5c0.6,0,0.9,0.3,1,0.7l1.3-0.8v0.6L3.6,5.8v0v0.7h1.2v0.6H1.5z"/>
				<path id="Fill-36" d="M3.5,1.9L2.1,2.5L3.5,3V1.9z M1.4,2.7V2.2l3.4-1.4v0.6L4,1.7v1.5l0.8,0.3v0.6L1.4,2.7z"/>
				<path id="Fill-37" d="M8.6,55.4c0-0.6-0.5-1.1-1.1-1.1h0c-0.7,0-1.1,0.4-1.1,1.1v0.6h2.3V55.4z M5.8,56.6v-1.2
					c0-1,0.7-1.7,1.7-1.7h0c0.9,0,1.7,0.7,1.7,1.7v1.2H5.8z"/>
				<polygon id="Fill-38" points="5.8,53.1 5.8,50.8 6.4,50.8 6.4,52.5 7.2,52.5 7.2,51 7.8,51 7.8,52.5 8.7,52.5 8.7,50.8 
					9.2,50.8 9.2,53.1 				"/>
				<path id="Fill-39" d="M7.5,48.9L7.5,48.9c-1,0-1.7-0.7-1.7-1.6c0-0.6,0.2-0.9,0.5-1.2l0.4,0.4c-0.2,0.2-0.4,0.5-0.4,0.9
					c0,0.6,0.5,1,1.2,1h0c0.7,0,1.2-0.4,1.2-1c0-0.4-0.2-0.6-0.4-0.9L8.6,46c0.4,0.3,0.6,0.7,0.6,1.3C9.2,48.2,8.5,48.9,7.5,48.9"/>
				<path id="Fill-40" d="M7.5,43L7.5,43c-0.7,0-1.2,0.4-1.2,1.1c0,0.6,0.5,1.1,1.2,1.1h0c0.6,0,1.2-0.4,1.2-1.1
					C8.7,43.4,8.2,43,7.5,43 M7.5,45.7L7.5,45.7c-1,0-1.7-0.7-1.7-1.6c0-1,0.8-1.6,1.7-1.6h0c0.9,0,1.7,0.7,1.7,1.6
					C9.2,45,8.5,45.7,7.5,45.7"/>
				<polygon id="Fill-41" points="5.8,41.7 5.8,41.2 8.6,41.2 8.6,39.5 9.2,39.5 9.2,41.7 				"/>
				<path id="Fill-42" d="M7.5,36.6L7.5,36.6c-0.7,0-1.2,0.4-1.2,1.1c0,0.6,0.5,1.1,1.2,1.1h0c0.6,0,1.2-0.4,1.2-1.1
					C8.7,37,8.2,36.6,7.5,36.6 M7.5,39.2L7.5,39.2c-1,0-1.7-0.7-1.7-1.6c0-1,0.8-1.6,1.7-1.6h0c0.9,0,1.7,0.7,1.7,1.6
					S8.5,39.2,7.5,39.2"/>
				<polygon id="Fill-43" points="5.8,35.3 5.8,34.7 7.4,33.8 5.8,32.8 5.8,32.2 9.2,32.2 9.2,32.8 6.8,32.8 8.4,33.8 8.4,33.8 
					6.8,34.7 9.2,34.7 9.2,35.3 				"/>
				<path id="Fill-44" d="M8.7,29.9c0-0.4-0.2-0.6-0.5-0.6h0c-0.3,0-0.4,0.2-0.4,0.6v0.9h0.9V29.9z M7.3,30.1c0-0.4-0.2-0.6-0.5-0.6
					h0c-0.3,0-0.4,0.2-0.4,0.6v0.8h0.9V30.1z M5.8,31.4V30c0-0.4,0.1-0.6,0.3-0.8C6.3,29,6.5,29,6.7,29h0c0.4,0,0.6,0.2,0.7,0.4
					c0.1-0.4,0.4-0.6,0.8-0.6h0c0.6,0,0.9,0.5,0.9,1.2v1.4H5.8z"/>
				<polygon id="Fill-45" points="5.8,28.1 9.2,28.1 9.2,27.6 5.8,27.6 				"/>
				<path id="Fill-46" d="M7.9,24.8l-1.3,0.5l1.3,0.5V24.8z M5.8,25.6v-0.5l3.4-1.4v0.6l-0.8,0.3v1.5l0.8,0.3V27L5.8,25.6z"/>
				<polygon id="Fill-47" points="9.4,129.8 10.2,129.8 10.2,82.8 9.4,82.8 				"/>
				<polygon id="Fill-48" points="0.6,129.8 1.4,129.8 1.4,82.8 0.6,82.8 				"/>
			</g>
		</g>
	</g>
</g>
</svg>
