<?xml version="1.0" encoding="UTF-8"?>
<svg width="19px" height="19px" viewBox="0 0 19 19" version="1.1" xmlns="http://www.w3.org/2000/svg" xmlns:xlink="http://www.w3.org/1999/xlink">
    <!-- Generator: Sketch 59.1 (86144) - https://sketch.com -->
    <title>Icons / Features / icn-help</title>
    <desc>Created with Sketch.</desc>
    <g id="Header" stroke="none" stroke-width="1" fill="none" fill-rule="evenodd">
        <g id="01-Desktop-1440" transform="translate(-1127.000000, -10.000000)">
            <g id="Menú-cerrado">
                <g id="Menú-holding">
                    <g id="Icons-/-Indicators-/-icn-help-dark" transform="translate(1124.000000, 7.000000)">
                        <circle id="trazo" stroke="#FFFFFF" stroke-width="2" cx="12.5" cy="12.5" r="8.33333333"></circle>
                        <path d="M12.5282292,7.98125 C11.6782292,7.98125 10.5407292,8.25625 9.6532292,8.91875 C9.5032292,9.01875 9.5157292,9.10625 9.5782292,9.21875 L10.1282292,10.18125 C10.2282292,10.33125 10.3157292,10.30625 10.4532292,10.21875 C11.1282292,9.80625 11.7407292,9.61875 12.3657292,9.61875 C13.0657292,9.61875 13.3907292,9.96875 13.3907292,10.34375 C13.3907292,10.86875 13.0032292,11.26875 12.5782292,11.66875 C11.9907292,12.23125 11.3032292,12.80625 11.3032292,13.75625 L11.3032292,14.15625 C11.3032292,14.29375 11.3157292,14.36875 11.4907292,14.36875 L12.8532292,14.36875 C13.0157292,14.36875 13.0532292,14.31875 13.0532292,14.18125 L13.0532292,13.89375 C13.0532292,13.30625 13.6657292,12.80625 14.2657292,12.21875 C14.8657292,11.64375 15.4657292,11.00625 15.4657292,10.15625 C15.4657292,8.58125 14.0657292,7.98125 12.5282292,7.98125 Z M13.2657292,15.94375 C13.2657292,15.21875 12.6782292,14.84375 12.1407292,14.84375 C11.5032292,14.84375 10.9782292,15.33125 10.9782292,15.94375 C10.9782292,16.56875 11.4907292,17.01875 12.1282292,17.01875 C12.7657292,17.01875 13.2657292,16.55625 13.2657292,15.94375 Z" id="?" fill="#FFFFFF" fill-rule="evenodd"></path>
                    </g>
                </g>
            </g>
        </g>
    </g>
</svg>