<?xml version="1.0" encoding="utf-8"?>
<!-- Generator: Adobe Illustrator 19.2.1, SVG Export Plug-In . SVG Version: 6.00 Build 0)  -->
<svg version="1.1" id="Capa_1" xmlns="http://www.w3.org/2000/svg" xmlns:xlink="http://www.w3.org/1999/xlink" x="0px" y="0px"
	 viewBox="0 0 512 512" style="enable-background:new 0 0 512 512;" xml:space="preserve">
<style type="text/css">
	.st0{fill:#FFFFFF;}
</style>
<path class="st0" d="M252.6,487.5c-55.1,0-110.2-0.6-165.3,0.3c-17.1,0.3-24.2-3.8-24.1-22.5c0.6-86.2,0.3-172.5-0.6-258.7
	c-0.2-18.7,6-25.1,24.8-25c46.8,0.1,48.3-0.7,46.6-46.4c-2.2-61.6,53.6-117.3,119.7-117.3c68.4,0,123.2,58.7,119.4,117.4
	c-0.1,0.8,0,1.6,0,2.4c0.1,43.7,0.1,44.7,44.7,43.9c21.2-0.4,27.5,6.7,27.2,27.6c-1.2,84.6-1.5,169.3-0.6,253.9
	c0.2,21-7.7,25.2-26.6,24.8C362.8,486.8,307.7,487.5,252.6,487.5z M398.1,444.9c0-68.8-0.2-134.9,0.1-201
	c0.1-15.9-10.3-15.2-21.1-15.2c-82.2,0-164.5,0.4-246.7-0.3c-17.5-0.2-21.5,6.7-21.3,22.7c0.7,45.5,0.1,91,0,136.5
	c0,18.8,0,37.6,0,57.3C206.8,444.9,300.8,444.9,398.1,444.9z M252.4,182c12.8,0,25.5,0,38.3,0c35.7,0,35.7,0,35.4-36.7
	c-0.4-47.8-29.6-82.5-70.7-83.8c-41-1.3-72.8,34.6-73.9,83.3c-0.9,37.1-0.9,37.1,37.4,37.1C230.1,182,241.2,182,252.4,182z"/>
<path class="st0" d="M182.9,316.8c18.3-3.8,22,4.7,22.7,20.8c0.9,20.3-9.9,20.5-25,21c-16.6,0.5-21.8-5.2-22.1-21.8
	C158.2,317.1,167.7,313.7,182.9,316.8z"/>
<path class="st0" d="M272.2,360.5c-13.5-3.1-28.7-3.7-39.7-10.7c-4.2-2.7-2.8-25.7,2.8-29.7c8.1-5.7,26.7-7.3,33.2-1.7
	c7.8,6.5,7.5,22.6,10.7,34.5C276.9,355.4,274.6,358,272.2,360.5z"/>
<path class="st0" d="M323.1,357.8c-17.8,3.6-20.2-6.2-21-21.5c-1.1-21,11.2-19.6,25.5-20.4c17.3-1,21.1,6.3,21.5,22.2
	C349.7,358.7,338.3,359.6,323.1,357.8z"/>
</svg>
