<?xml version="1.0" encoding="utf-8"?>
<!-- Generator: Adobe Illustrator 19.2.1, SVG Export Plug-In . SVG Version: 6.00 Build 0)  -->
<svg version="1.1" id="Capa_1" xmlns="http://www.w3.org/2000/svg" xmlns:xlink="http://www.w3.org/1999/xlink" x="0px" y="0px"
	 viewBox="0 0 512 512" style="enable-background:new 0 0 512 512;" xml:space="preserve">
<g>
	<path d="M260.2,84.8c66.9,3.9,118.5,35.7,161.2,82.6c18.8,20.7,35.2,44.1,49.1,68.4c6.1,10.6,9,29.5,3.7,39.3
		c-42.1,77.8-99.8,138.3-191.4,155.6c-39.1,7.4-75.1-4-109-22.3c-55.1-30-95.7-74.7-124.2-129.9c-5.1-9.8-6.6-26.5-1.6-35.6
		C90.6,164,149.1,103.9,241.7,86.9C248.2,85.7,254.9,85.3,260.2,84.8z M262.9,119.2c-13.1,2.2-26.8,2.7-39.2,6.8
		c-64.8,21.6-108.9,67.4-141.8,125.2c-2.7,4.8-0.9,14.5,2.2,20c25.3,43.9,58.7,80.1,103.3,105.2c43.6,24.5,88.1,28.8,134.1,6.8
		c52.2-24.9,90-64.8,117.9-114.5c3.1-5.5,2.5-17-1.4-21.7c-24.9-30.1-49-61.5-77.6-87.9C334.1,134.8,300.6,120.9,262.9,119.2z"/>
	<path d="M177.2,258c0.3-45.5,38.4-83.6,83.7-83.8c46.2-0.1,84.5,38.7,84.2,85.5c-0.3,45.6-38.3,83.7-83.7,83.9
		C215.2,343.7,176.8,304.7,177.2,258z M211.4,257.1c-0.8,27.6,19.9,49.9,47.4,50.9c29,1,51.4-19.9,52-48.5
		c0.5-26.5-20-48.5-46.3-49.6C235.3,208.6,212.3,229.1,211.4,257.1z"/>
</g>
</svg>
