<?xml version="1.0" encoding="utf-8"?>
<!-- Generator: Adobe Illustrator 19.2.1, SVG Export Plug-In . SVG Version: 6.00 Build 0)  -->
<svg version="1.1" id="Capa_1" xmlns="http://www.w3.org/2000/svg" xmlns:xlink="http://www.w3.org/1999/xlink" x="0px" y="0px"
	 viewBox="0 0 512 512" style="enable-background:new 0 0 512 512;" xml:space="preserve">
<style type="text/css">
	.st0{fill:#00CA82;}
</style>
<path class="st0" d="M58.5,303.8c-11.5,2.6-20.6,4.6-29.5,6.6C-11.7,190.9,71.5,48,200.2,21.4c39-8.1,81.9-3.8,122,2.1
	c29.9,4.4,55.8,22.4,90.3,12.8c27-7.5,55.3,23.7,58.2,53.4c2.9,30.4-18.4,58.2-48.2,63.3c-33.1,5.6-65.8-12.9-66.7-45.5
	c-1-36-22.2-44-48.9-50.7c-133.4-33.3-258,69.1-251.6,206.8C55.8,275.6,57.2,287.6,58.5,303.8z M443.6,94.3
	c-15.6-9.9-24.7-20.1-33.8-20c-6.8,0.1-13.5,13.2-20.3,20.6c8.1,6.9,15.4,17.8,24.4,19.4C420.6,115.4,429.4,104.4,443.6,94.3z"/>
<path class="st0" d="M452.1,197.8c11.9-1.8,21.2-3.2,31.7-4.7c2.1,5.1,4.8,9.3,5.5,13.8c14.2,93-12.7,172-86.6,230.6
	c-72.7,57.7-154.4,65.4-240.9,32.9c-13.5-5.1-29.7-7.6-43.8-5.6c-39.2,5.7-70.9-13.7-75.8-49.6c-4.3-32.1,17.3-62,48.2-66.7
	c36.8-5.6,67.3,17.5,67.8,57.5c0.3,23.9,13.8,28.3,29.7,34c137.8,49.5,278.8-58.1,268.6-205.1C455.9,224.1,454,213.3,452.1,197.8z
	 M130.7,404.9c-13.6-8.8-23.1-19.7-29.4-18c-8.9,2.4-15.4,13.9-22.9,21.5c8.4,6.7,16.3,17.4,25.4,18.7
	C110.2,428,118.3,415.7,130.7,404.9z"/>
<path class="st0" d="M255.8,370.6c-29.3-35.1-60.1-63.1-78.9-97.6c-12.6-23.1-12.1-55.8-9.6-83.5c0.8-9,26.4-15.7,40.5-23.6
	c44.2-24.6,85-5.6,125.4,10.8c18.7,7.6,21.9,73.5,4.2,95.8C311.9,305,284.7,336.1,255.8,370.6z M255.7,313
	c14.9-17.7,30.1-31,39-47.7c8.4-15.8,19.2-44.6,12.6-51c-13.5-13.3-38-21.4-57.8-21c-43.1,0.7-62.3,32.1-41.5,62.8
	C221.4,275.8,238.7,292.9,255.7,313z"/>
</svg>
