<?xml version="1.0" encoding="utf-8"?>
<!-- Generator: Adobe Illustrator 19.2.1, SVG Export Plug-In . SVG Version: 6.00 Build 0)  -->
<svg version="1.1" id="Capa_1" xmlns="http://www.w3.org/2000/svg" xmlns:xlink="http://www.w3.org/1999/xlink" x="0px" y="0px"
	 viewBox="0 0 512 512" style="enable-background:new 0 0 512 512;" xml:space="preserve">
<style type="text/css">
	.st0{fill:#0081FF;}
</style>
<path class="st0" d="M378.5,149.8c-40.8,41.2-83,83.8-123.5,124.8c-41.4-41.4-83.9-83.9-124.3-124.3
	c40.2-40.3,82.9-83.1,124.2-124.5C295.1,66.2,337.4,108.6,378.5,149.8z M182.7,148.2c24.3,23.9,49.6,48.9,73,72
	c22.7-22.8,47.5-47.6,70.4-70.6c-23.5-23.6-48.3-48.5-71.9-72.2C230.4,101,205.5,125.7,182.7,148.2z"/>
<path class="st0" d="M40.9,321c69.7,0,137.7,0,207.3,0c0,12.1,0,23.2,0,37.2c-56.6,0-113,0-171.9,0c0,37.8,0,72.8,0,109.1
	c-12.9,0-23.2,0-35.4,0C40.9,419.5,40.9,371.5,40.9,321z"/>
<path class="st0" d="M309.8,420.4c0-14.6,0-25,0-38.9c19.3,0,38.4,0,60.2,0c0-21.9,0-40.4,0-60.1c13.2,0,23.6,0,36.7,0
	c0,18.4,0,36.8,0,58.4c20.9,0,39.3,0,59.3,0c0,14.3,0,25.4,0,39.1c-18.3,0-36.8,0-57.7,0c0,21,0,39.6,0,60.1c-13.2,0-24.1,0-37.7,0
	c0-19.1,0-37.6,0-58.5C349.6,420.4,331.1,420.4,309.8,420.4z"/>
</svg>
