<svg enable-background="new 0 0 24 24" height="512" viewBox="0 0 24 24" width="512" xmlns="http://www.w3.org/2000/svg"><path d="m21.5 20h-19c-1.379 0-2.5-1.121-2.5-2.5v-11c0-1.378 1.121-2.5 2.5-2.5h19c1.379 0 2.5 1.122 2.5 2.5v11c0 1.379-1.121 2.5-2.5 2.5zm-19-15c-.827 0-1.5.673-1.5 1.5v11c0 .827.673 1.5 1.5 1.5h19c.827 0 1.5-.673 1.5-1.5v-11c0-.827-.673-1.5-1.5-1.5z"/><path d="m7.5 16c-.276 0-.5-.224-.5-.5v-5c0-.827-.673-1.5-1.5-1.5s-1.5.673-1.5 1.5v5c0 .276-.224.5-.5.5s-.5-.224-.5-.5v-5c0-1.378 1.121-2.5 2.5-2.5s2.5 1.122 2.5 2.5v5c0 .276-.224.5-.5.5z"/><path d="m7.5 13h-4c-.276 0-.5-.224-.5-.5s.224-.5.5-.5h4c.276 0 .5.224.5.5s-.224.5-.5.5z"/><path d="m11.5 16c-.276 0-.5-.224-.5-.5v-7c0-.276.224-.5.5-.5s.5.224.5.5v7c0 .276-.224.5-.5.5z"/><path d="m13.5 9h-4c-.276 0-.5-.224-.5-.5s.224-.5.5-.5h4c.276 0 .5.224.5.5s-.224.5-.5.5z"/><path d="m20.5 16c-.276 0-.5-.224-.5-.5v-5.349l-1.084 1.626c-.186.278-.646.278-.832 0l-1.084-1.626v5.349c0 .276-.224.5-.5.5s-.5-.224-.5-.5v-7c0-.22.145-.415.355-.479.213-.063.438.019.561.201l1.584 2.376 1.584-2.376c.122-.183.347-.267.561-.201.21.064.355.259.355.479v7c0 .276-.224.5-.5.5z"/></svg>