<?xml version="1.0" standalone="no"?>
<!DOCTYPE svg PUBLIC "-//W3C//DTD SVG 20010904//EN"
 "http://www.w3.org/TR/2001/REC-SVG-20010904/DTD/svg10.dtd">
<svg version="1.0" xmlns="http://www.w3.org/2000/svg"
 width="260.000000pt" height="199.000000pt" viewBox="0 0 260.000000 199.000000"
 preserveAspectRatio="xMidYMid meet">
<metadata>
Created by potrace 1.16, written by Peter Selinger 2001-2019
</metadata>
<g transform="translate(0.000000,199.000000) scale(0.100000,-0.100000)"
fill="#000000" stroke="none">
<path d="M145 1911 c-22 -10 -52 -31 -67 -47 -60 -64 -58 -32 -58 -866 0 -721
1 -765 19 -803 10 -22 31 -52 47 -67 66 -61 -2 -58 1216 -58 1062 0 1115 1
1153 19 22 10 52 31 67 47 60 64 58 33 58 864 0 831 2 800 -58 864 -15 16 -45
37 -67 47 -38 18 -91 19 -1155 19 -1064 0 -1117 -1 -1155 -19z m2290 -126 c23
-22 25 -32 25 -115 l0 -90 -1160 0 -1160 0 0 90 c0 83 2 93 25 115 l24 25
1111 0 1111 0 24 -25z m25 -931 l0 -615 -25 -24 -24 -25 -1111 0 -1111 0 -24
25 -25 24 0 615 0 614 1160 0 1160 0 0 -614z"/>
<path d="M717 1110 c-140 -35 -227 -144 -227 -285 0 -119 64 -217 175 -266 41
-19 69 -23 153 -23 91 -1 105 1 118 18 19 27 18 60 -4 79 -14 13 -38 17 -103
17 -68 0 -94 4 -129 23 -76 38 -114 120 -91 197 27 92 91 129 222 130 92 0
119 13 119 56 0 46 -23 59 -112 61 -46 1 -100 -2 -121 -7z"/>
<path d="M1092 1104 c-14 -9 -22 -25 -22 -42 1 -15 41 -133 89 -262 69 -182
95 -239 115 -254 26 -20 26 -20 52 0 20 15 46 72 116 258 49 133 88 251 86
265 -2 15 -14 31 -29 40 -49 27 -68 2 -135 -178 -32 -88 -61 -161 -64 -161 -3
0 -32 72 -64 161 -69 186 -90 211 -144 173z"/>
<path d="M1683 1110 c-45 -18 -40 -49 42 -268 102 -274 110 -291 137 -301 19
-7 47 -1 66 14 10 8 182 486 182 507 0 19 -9 33 -26 45 -23 15 -29 15 -51 2
-20 -11 -38 -48 -86 -177 -33 -89 -64 -159 -68 -155 -4 4 -33 76 -63 158 -33
87 -65 157 -77 168 -24 19 -25 19 -56 7z"/>
</g>
</svg>
