<svg xmlns="http://www.w3.org/2000/svg" viewBox="0 0 284 25" fill-rule="nonzero" fill="#ec111a" xmlns:v="https://vecta.io/nano"><path d="M53.286 17.032c-1.299 0-2.358-1.061-2.358-2.362s1.06-2.362 2.358-2.362 2.358 1.061 2.358 2.362-1.06 2.362-2.358 2.362m0-7.737c-2.957 0-5.349 2.414-5.349 5.358 0 2.961 2.41 5.358 5.349 5.358s5.349-2.414 5.349-5.358-2.41-5.358-5.349-5.358m12.168.256h-1.453V6.385h-3.213v3.167h-1.453v2.91h1.453v7.309h3.213v-7.309h1.453m1.47-2.911h3.196V19.77h-3.196zm1.607-4.946c-.991 0-1.777.805-1.777 1.78a1.79 1.79 0 0 0 1.777 1.78c.991 0 1.777-.805 1.777-1.78a1.79 1.79 0 0 0-1.777-1.78m45.921 7.703c1.06 0 1.914.856 1.914 1.917v5.546h3.196V13.78c0-2.722-1.572-4.485-4.05-4.485-1.025 0-2.085.445-2.974 1.883V9.551h-3.196V19.77h3.196v-5.546c0-1.061.854-1.917 1.914-1.917m16.765 7.463l-3.931-5.101 3.657-5.118H127.2l-2.939 4.142V4.861h-3.196V19.77h3.196v-4.211l3.23 4.211m-90.594-2.756c.222-.548.325-1.113.325-1.883 0-1.027-.325-1.951-.906-2.602-.684-.753-1.846-1.369-3.469-1.849a5.96 5.96 0 0 1-.906-.342c-.291-.137-.496-.308-.684-.514-.205-.223-.291-.496-.291-.822 0-.479.256-.805.667-1.061.513-.325 1.521-.359 2.529.017.359.137.667.274 1.025.496l1.367-2.705c-.513-.308-1.23-.702-1.948-.873a8.59 8.59 0 0 0-2.17-.274c-.752 0-1.436.12-2.034.342-.53.205-1.077.565-1.555 1.01-.427.411-.82 1.01-1.042 1.558a5.13 5.13 0 0 0-.342 1.883 3.96 3.96 0 0 0 1.213 2.705c.94.873 1.982 1.181 2.41 1.352l1.196.428c.308.12.667.291.872.445.222.171.359.308.461.514s.12.394.103.65c-.034.342-.188.616-.461.873s-.769.411-1.47.411c-.581 0-1.196-.171-1.777-.428-.53-.24-.889-.445-1.453-.77l-1.606 2.79c1.111.993 2.922 1.66 4.546 1.66.82 0 1.675-.137 2.41-.394.684-.24 1.367-.616 1.829-1.027.496-.428.94-1.044 1.162-1.592m96.574 2.399c-.786 0-1.418-.633-1.418-1.421s.632-1.421 1.418-1.421 1.418.633 1.418 1.421c.017.787-.632 1.421-1.418 1.421m0-3.218c-.991 0-1.777.805-1.777 1.78a1.78 1.78 0 0 0 1.777 1.78c.991 0 1.777-.805 1.777-1.78.017-.976-.786-1.78-1.777-1.78"/><path d="M133.19 17.956h.42c.157 0 .28-.137.28-.308s-.122-.291-.28-.291h-.42v.599zm.297.325h-.297v.685h-.367v-1.951h.769c.367 0 .664.291.664.65 0 .24-.157.462-.385.565l.42.736h-.437l-.367-.685zm-87.823-2.14c-.427.531-1.094.89-1.846.89-1.299 0-2.358-1.061-2.358-2.362s1.06-2.362 2.358-2.362c.735 0 1.401.342 1.846.89l2.119-2.123a5.34 5.34 0 0 0-3.965-1.763c-2.957 0-5.52 2.105-5.52 5.358s2.563 5.358 5.52 5.358c1.572 0 2.974-.685 3.965-1.763m29.276-1.198a2.414 2.414 0 0 1 0-4.827 2.41 2.41 0 0 1 2.41 2.414 2.42 2.42 0 0 1-2.41 2.414zm5.588 2.705V9.551h-3.11v1.078l-.291-.257c-.786-.702-1.658-1.078-2.683-1.078-2.751 0-5.076 2.448-5.076 5.358s2.324 5.358 5.076 5.358c1.025 0 1.914-.377 2.683-1.078l.291-.257v1.078h3.11v.017zm19.551-2.705a2.414 2.414 0 0 1 0-4.827 2.414 2.414 0 0 1 0 4.827zm5.606 2.705V9.551h-3.127v1.078l-.291-.257c-.786-.702-1.658-1.078-2.683-1.078-2.751 0-5.076 2.448-5.076 5.358s2.324 5.358 5.076 5.358c1.025 0 1.914-.377 2.683-1.078l.291-.257v1.078h3.127v.017zm-20.303-5.118a2.41 2.41 0 0 1 2.41-2.414 2.414 2.414 0 0 1 0 4.827 2.41 2.41 0 0 1-2.41-2.414zm-.068 5.118v-1.078l.291.257c.786.702 1.658 1.078 2.683 1.078 2.751 0 5.076-2.448 5.076-5.358s-2.324-5.358-5.076-5.358c-1.025 0-1.914.377-2.683 1.078l-.291.257V4.878h-3.127v14.909h3.127v-.017zM18.03 4.605h-6.956c-3.965 0-7.229 2.995-7.656 6.847a7.67 7.67 0 0 1-.957-3.732C2.461 3.458 5.913 0 10.169 0h11.997M4.136 20.027h6.956c3.965 0 7.229-2.995 7.656-6.847a7.67 7.67 0 0 1 .957 3.732c0 4.262-3.452 7.72-7.708 7.72H0m17.261-12.325a6.19 6.19 0 0 1-6.187 6.196 6.19 6.19 0 1 1 0-12.392 6.19 6.19 0 0 1 6.187 6.196m211.898-.171c-.342.068-.735.068-1.077.068h-.581l.513-3.132h1.145c1.042 0 1.846.274 1.675 1.575-.239 1.061-.854 1.369-1.675 1.489m3.623-5.186c-.684-.342-1.538-.445-2.529-.445h-5.247l-2.068 12.41h3.452l.701-4.091h2.068c1.504-.068 2.751-.445 3.623-1.164.889-.702 1.384-1.677 1.624-3.047.273-1.917-.342-3.064-1.624-3.663"/><path d="M219.948 6.505h-3.452l-2.068 12.187v.223h7.588l.461-2.739h-4.136m-17.859-9.123l-.154-.051c-.872-.359-1.76-.514-2.734-.514-1.812 0-3.726.736-5.144 1.934-1.367 1.147-2.29 2.687-2.563 4.314-.273 1.763.103 3.269 1.316 4.468 1.094 1.095 2.683 1.712 4.426 1.712 1.025 0 1.863-.205 3.008-.514l.615-3.68c-.82.77-1.965 1.25-3.059 1.25-2.017 0-3.179-1.352-2.837-3.218.273-1.814 1.863-3.269 3.879-3.269 1.094 0 2.136.462 2.632 1.301l.496-2.961m10.339 4.722c-.325 1.78-1.829 3.098-3.503 3.372-.205 0-.41.034-.581.034-1.88 0-3.23-1.421-2.905-3.406.222-1.541 1.777-2.859 3.486-3.132h.496c1.948 0 3.298 1.489 3.008 3.132m-2.512-6.042l-.991.034c-3.162.359-6.221 2.602-6.819 5.734v.205c-.154.856-.154 1.677 0 2.414.547 2.448 2.7 4.023 5.759 4.023a5.79 5.79 0 0 0 1.06-.103c3.503-.394 6.306-2.91 6.853-6.333v-.257a8.47 8.47 0 0 0 0-1.318c-.325-2.67-2.905-4.399-5.862-4.399"/><path d="M178.915 4.759c-3.486-.291-9.502 1.095-9.502 1.095-1.111.291-2.153.565-3.076.976-1.042.394-1.982.856-2.717 1.369.581-.223 1.572-.394 2.717-.565.684-.12 1.504-.24 2.376-.24 3.418-.171 12.185 1.267 12.185 5.957 0 5.032-9.399 7.275-14.561 7.788-.461.051-.94.051-1.282.12-3.538.223-8.049-.12-8.75-.171 2.837 1.147 6.306 1.78 10.032 1.78 9.981-.051 18.098-4.759 18.098-10.544 0-2.995-2.153-5.614-5.52-7.566m91.944 1.746h-3.452l-2.017 12.41h3.452l1.384-8.678m-15.483-3.732h-9.075l-.461 2.739h2.82l-1.555 9.671h3.452l1.555-9.671h2.871"/><path d="M275.688 13.852l1.401-2.738.617-1.176.784 3.914h-2.802zm4.486-7.677h-3.652l-6.404 11.104-.55 1.058h3.586l1.234-2.083h4.603l.5 2.083h3.569l-2.885-12.162zm-20.305 5.739a4.72 4.72 0 0 1-1.162.154h-.342l.513-3.098h.974c.854.103 1.606.445 1.504 1.523-.154.89-.786 1.267-1.487 1.421m5.076-1.575c.461-2.687-1.316-3.834-3.965-3.834h-5.127l-1.606 9.466-.479 2.944h3.469l.803-4.759 1.846 3.492.632 1.267h4.324l-3.367-5.084a4.11 4.11 0 0 0 3.469-3.492m-27.498 3.988l1.436-2.79.632-1.198.803 3.988h-2.871zm4.666-7.823h-3.777l-5.537 9.517-1.606 2.893h3.691l1.265-2.123h4.717l.513 2.123h3.691l-2.957-12.41zm-75.776 9.946c.222 0 .461.051.684.051.872 0 1.743-.12 2.615-.342 1.743-1.25 2.683-2.636 2.683-3.834 0-2.174-2.615-3.886-5.981-4.125h-.632a10.01 10.01 0 0 0-2.598.342c-1.794 1.267-2.666 2.636-2.666 3.834-.017 2.054 2.598 3.834 5.896 4.074m-.001 1.352a20.17 20.17 0 0 0 2.786-1.318 22.78 22.78 0 0 1-2.786.565l-2.324.24c-3.418.171-12.236-1.318-12.236-5.957 0-5.152 9.451-7.326 14.561-7.891.461 0 .872-.051 1.282-.051 3.606-.171 8.118.171 8.818.223-2.905-1.147-6.323-1.832-10.1-1.832-9.981 0-18.03 4.759-18.03 10.544 0 2.978 2.085 5.666 5.503 7.617 3.486.223 9.502-1.147 9.502-1.147 1.111-.308 2.102-.633 3.025-.993"/></svg>