<svg xmlns="http://www.w3.org/2000/svg" xmlns:xlink="http://www.w3.org/1999/xlink" width="320" height="92" viewBox="0 0 320 92">
    <defs>
        <rect id="a" width="29.974" height="61.771" x="1" rx="2"/>
    </defs>
    <g fill="none" fill-rule="evenodd">
        <g opacity=".18">
            <path fill="#FFF" d="M270.825 18.764c.242-.008.577-.148.7-.337 2.161-3.336 5.11-5.714 8.845-7.285-1.12-1.229-2.455-1.73-4.024-1.542-2.238.266-2.446.18-2.642-2.05-.266-3.006-2.739-5.798-6.365-6.055-2.857-.203-5.671 1.768-6.643 4.753-.447 1.374-.821 1.601-2.245 1.355-1.246-.218-2.404.02-3.214 1.003-.695.841-1.453 1.012-2.483.888-3.051-.367-5.482 2.051-5.203 5.094.216 2.357 2.2 4.153 4.709 4.182 3.012.033 6.026.005 9.039.015h6.238l.143-.002c1.049-.013 2.098.018 3.145-.02"/>
            <path stroke="#000" d="M270.825 18.764c.242-.008.577-.148.7-.337 2.161-3.336 5.11-5.714 8.845-7.285-1.12-1.229-2.455-1.73-4.024-1.542-2.238.266-2.446.18-2.642-2.05-.266-3.006-2.739-5.798-6.365-6.055-2.857-.203-5.671 1.768-6.643 4.753-.447 1.374-.821 1.601-2.245 1.355-1.246-.218-2.404.02-3.214 1.003-.695.841-1.453 1.012-2.483.888-3.051-.367-5.482 2.051-5.203 5.094.216 2.357 2.2 4.153 4.709 4.182 3.012.033 6.026.005 9.039.015h6.238l.143-.002c1.049-.013 2.098.018 3.145-.02z"/>
            <path fill="#FFF" d="M272.043 23.909a16.82 16.82 0 0 1-.234.749c-.357 1.047-.9 1.372-1.983 1.085-1.762-.468-3.507-.534-5.263.026-1.72.55-3.183 1.492-4.256 2.942-.646.872-1.355 1.139-2.428.912-6.887-1.468-13.349 3.631-13.76 10.668-.325 5.592 4.065 11.09 9.618 11.794 1.345.17 2.716.16 4.076.168 3.509.022 7.02.008 10.565.008 1.382-5.304 4.793-7.965 10.206-7.902.393-1.215.646-2.465 1.184-3.578 2.221-4.61 5.969-7.082 11.066-7.02 5.065.063 8.71 2.618 10.84 7.24.252.545.493.779 1.144.74 2.206-.129 4.094.662 5.708 2.159.205.19.541.378.796.356 3.103-.286 5.703.77 7.968 2.941 1.774-2.788 2.346-5.76 1.56-8.938-1.236-5-5.554-8.47-10.704-8.591-1.057-.024-2.132.203-3.179.403-1.587.303-2.213-.16-2.233-1.772-.027-2.336-.497-4.573-1.504-6.688a6.916 6.916 0 0 1-.302-.723 14.801 14.801 0 0 0-2.248-3.203 2.24 2.24 0 0 1-.28-.241c-2.358-2.369-5.127-3.95-8.428-4.556-7.97-1.466-15.643 3.25-17.929 11.02"/>
            <path stroke="#000" d="M272.043 23.909a16.82 16.82 0 0 1-.234.749c-.357 1.047-.9 1.372-1.983 1.085-1.762-.468-3.507-.534-5.263.026-1.72.55-3.183 1.492-4.256 2.942-.646.872-1.355 1.139-2.428.912-6.887-1.468-13.349 3.631-13.76 10.668-.325 5.592 4.065 11.09 9.618 11.794 1.345.17 2.716.16 4.076.168 3.509.022 7.02.008 10.565.008 1.382-5.304 4.793-7.965 10.206-7.902.393-1.215.646-2.465 1.184-3.578 2.221-4.61 5.969-7.082 11.066-7.02 5.065.063 8.71 2.618 10.84 7.24.252.545.493.779 1.144.74 2.206-.129 4.094.662 5.708 2.159.205.19.541.378.796.356 3.103-.286 5.703.77 7.968 2.941 1.774-2.788 2.346-5.76 1.56-8.938-1.236-5-5.554-8.47-10.704-8.591-1.057-.024-2.132.203-3.179.403-1.587.303-2.213-.16-2.233-1.772-.027-2.336-.497-4.573-1.504-6.688a6.916 6.916 0 0 1-.302-.723 14.801 14.801 0 0 0-2.248-3.203 2.24 2.24 0 0 1-.28-.241c-2.358-2.369-5.127-3.95-8.428-4.556-7.97-1.466-15.643 3.25-17.929 11.02z"/>
            <path fill="#FFF" d="M318.992 49.343c.25-3.464-1.995-6.805-5.278-7.591-1.189-.284-2.484-.253-3.72-.174-.871.056-1.524-.058-2.094-.75-1.606-1.955-3.646-2.633-6.12-2.02-1.238.308-1.843-.098-2.272-1.548-.754-2.556-2.255-4.517-4.474-5.988-6.05-4.013-14.702-.208-15.796 6.976a16.692 16.692 0 0 0-.167 1.836c-.066 1.516-.8 2.11-2.312 1.742a7.483 7.483 0 0 0-3.905.07c-3.393.97-5.515 4.125-5.24 7.788.246 3.301 2.972 6.095 6.363 6.504.609.074 1.226.114 1.84.116 8.272.007 16.546.005 24.819.005.175 0 .351-.002.528 0H306.748c1.962-.044 3.936.02 5.887-.156 3.388-.31 6.104-3.3 6.357-6.81"/>
            <path stroke="#000" d="M318.992 49.343c.25-3.464-1.995-6.805-5.278-7.591-1.189-.284-2.484-.253-3.72-.174-.871.056-1.524-.058-2.094-.75-1.606-1.955-3.646-2.633-6.12-2.02-1.238.308-1.843-.098-2.272-1.548-.754-2.556-2.255-4.517-4.474-5.988-6.05-4.013-14.702-.208-15.796 6.976a16.692 16.692 0 0 0-.167 1.836c-.066 1.516-.8 2.11-2.312 1.742a7.483 7.483 0 0 0-3.905.07c-3.393.97-5.515 4.125-5.24 7.788.246 3.301 2.972 6.095 6.363 6.504.609.074 1.226.114 1.84.116 8.272.007 16.546.005 24.819.005.175 0 .351-.002.528 0H306.748c1.962-.044 3.936.02 5.887-.156 3.388-.31 6.104-3.3 6.357-6.81z"/>
        </g>
        <g stroke="#000" opacity=".18">
            <path d="M41.76 68.826c-.242-.008-.577-.148-.7-.336-2.161-3.337-5.11-5.715-8.845-7.285 1.12-1.23 2.455-1.73 4.024-1.542 2.238.266 2.446.179 2.642-2.05.266-3.007 2.739-5.799 6.365-6.055 2.857-.203 5.671 1.767 6.642 4.752.448 1.375.822 1.602 2.246 1.355 1.246-.217 2.404.02 3.214 1.004.695.84 1.453 1.012 2.483.888 3.051-.368 5.482 2.05 5.203 5.094-.216 2.357-2.2 4.153-4.709 4.182-3.012.032-6.026.005-9.04.014h-6.237l-.143-.001c-1.05-.013-2.098.017-3.145-.02zM.554 84.627c-.229-3.173 1.828-6.235 4.836-6.955 1.09-.26 2.276-.232 3.408-.16.799.052 1.397-.052 1.92-.687 1.47-1.79 3.34-2.412 5.607-1.85 1.133.282 1.688-.09 2.08-1.418.692-2.343 2.067-4.14 4.1-5.487 5.544-3.677 13.47-.19 14.473 6.392.086.556.13 1.12.153 1.682.061 1.39.734 1.933 2.119 1.596a6.857 6.857 0 0 1 3.578.065c3.108.889 5.052 3.779 4.801 7.135-.226 3.025-2.723 5.584-5.83 5.96-.558.067-1.124.104-1.686.106-7.58.005-15.16.004-22.74.004h-5.601c-1.797-.04-3.606.02-5.393-.143-3.104-.284-5.593-3.023-5.825-6.24z"/>
        </g>
        <path stroke="#D0D0D0" stroke-linecap="round" d="M112.752 8.59h7.804M239.463 67.651h7.805M67.651 20.403h12.886M201.88 27.92h12.885M216.913 81.61h11.812M76.242 90.201h16.107M105.235 69.799h12.886"/>
        <g transform="translate(128 16)">
            <use fill="#FFF" xlink:href="#a"/>
            <rect width="30.974" height="62.771" x=".5" y="-.5" stroke="#4A4A4A" rx="2"/>
            <path fill="#2D2D2D" d="M16.006 52h-.023A1.99 1.99 0 0 0 14 54c0 1.104.904 2 2.006 2 1.1 0 1.994-.896 1.994-2s-.894-2-1.994-2z"/>
            <g fill="#ED0722" transform="rotate(90 -10 16)">
                <circle cx="5" cy="1" r="1"/>
                <circle cx="9" cy="1" r="1"/>
                <circle cx="1" cy="1" r="1"/>
            </g>
            <path fill="#FFF" d="M20 6.5h12v50H20z"/>
            <circle cx="42" cy="31" r="22" fill="#FFF" stroke="#4A4A4A"/>
            <circle cx="42" cy="31" r="18.333" fill="#FFF" stroke="#4A4A4A" stroke-dasharray="3,3" stroke-linecap="round"/>
            <path fill="#ED0722" d="M45.488 37.534c-.73.77-1.67 1.273-2.816 1.509V42.2h-1.296v-3.016h-.213c-1.382 0-2.615-.236-3.7-.707l.166-1.673c1.02.644 2.23.966 3.629.966 1.13 0 2.03-.294 2.698-.884.668-.589 1.001-1.41 1.001-2.462 0-.628-.259-1.182-.777-1.661-.519-.48-1.312-1.01-2.38-1.591-.959-.518-1.736-.982-2.333-1.39a5.707 5.707 0 0 1-1.473-1.438 3.207 3.207 0 0 1-.577-1.885c0-1.115.369-2.038 1.107-2.769.739-.73 1.689-1.198 2.852-1.402v-3.205h1.296v3.087c.55 0 1.107.047 1.673.142a7.505 7.505 0 0 1 1.508.4l-.26 1.485c-.36-.189-.808-.338-1.343-.448a8.16 8.16 0 0 0-1.65-.165c-1.005 0-1.849.236-2.532.707-.684.471-1.025 1.178-1.025 2.121 0 .644.263 1.198.789 1.661.526.464 1.379 1.002 2.557 1.614.864.44 1.583.864 2.156 1.273a5.71 5.71 0 0 1 1.45 1.496c.392.59.588 1.285.588 2.086 0 1.225-.365 2.223-1.095 2.992z"/>
            <circle cx="30.542" cy="30.542" r="1.375" fill="#4A4A4A"/>
            <circle cx="53.458" cy="30.542" r="1.375" fill="#4A4A4A"/>
        </g>
    </g>
</svg>
