<svg xmlns="http://www.w3.org/2000/svg" width="24" height="24" fill="none" stroke="#000" stroke-width="1.5" xmlns:v="https://vecta.io/nano"><path d="M8.774 19.384c.986.277 2.073.44 3.263.44 1.691 0 3.176-.328 4.457-.85 4.221-1.717 6.247-5.537 6.247-6.68 0-.707-.776-2.44-2.369-4.066m-2.77-2.091c-1.51-.816-3.362-1.372-5.565-1.372-7.261 0-10.704 6.04-10.704 7.53 0 .952 1.41 3.77 4.328 5.674M14.4 9.358a3.776 3.776 0 0 0-6.14 2.936c0 .906.322 1.738.859 2.388m3.34 1.353a3.778 3.778 0 0 0 3.346-3.473M2.593 21.706L22.122 2.244"/></svg>