<svg xmlns="http://www.w3.org/2000/svg" width="102" height="66" fill="none" fill-rule="evenodd" xmlns:v="https://vecta.io/nano"><path d="M90.728 50.212H70.891c-2.463 0-4.467-1.452-4.467-3.237V18.22c0-1.785 2.004-3.238 4.467-3.238h19.838c2.463 0 4.467 1.453 4.467 3.238v28.754c0 1.785-2.003 3.237-4.467 3.237z" fill="#fff3cc"/><path d="M62.705 52.36c-1.235 0-2.241-1.005-2.241-2.24V30.223c0-1.235 1.005-2.24 2.241-2.24h9.948c1.235 0 2.24 1.005 2.24 2.24V50.12c0 1.235-1.005 2.24-2.24 2.24h-9.948z" fill="#ffe06d"/><path d="M67.678 50.77a1.36 1.36 0 1 1 0-2.72 1.36 1.36 0 1 1 0 2.72zM53.87 0H14.02C10.5.004 7.648 2.856 7.644 6.376v29.489c.004 3.52 2.856 6.372 6.376 6.376h11.955v4.782h-5.579c-.881 0-1.594.713-1.594 1.593s.714 1.594 1.595 1.594h27.098c.88 0 1.594-.714 1.594-1.594s-.714-1.593-1.594-1.593h-5.58v-4.782H53.87c3.52-.004 6.372-2.857 6.376-6.376V6.376C60.243 2.856 57.39.004 53.87 0z" fill="#fff3cc"/><path d="M14.02 3.188a3.19 3.19 0 0 0-3.188 3.188v.047 29.319.047a3.19 3.19 0 0 0 3.188 3.188h39.851a3.19 3.19 0 0 0 3.188-3.188v-.047V6.423v-.047a3.19 3.19 0 0 0-3.188-3.188H14.02zm55.17 1.048l.519 1.46 1.4-.666-.666 1.4 1.46.519-1.46.519.666 1.4-1.4-.666-.519 1.461-.52-1.461-1.4.666.666-1.4-1.461-.519 1.461-.519-.666-1.4 1.4.666.52-1.46zM8.117 43.647l.519 1.461 1.4-.666-.666 1.4 1.46.52-1.46.519.666 1.4-1.4-.666-.519 1.46-.52-1.46-1.4.666.666-1.4-1.461-.519 1.461-.52-.666-1.4 1.4.666.52-1.461z" fill="#ffe06d"/><path d="M1.773 37.205l.34.954.914-.435-.435.915.954.339-.954.339.435.914-.914-.434-.34.953-.339-.953-.914.434.434-.914L0 38.978l.954-.339-.434-.915.914.435.339-.954zM75.258 7.891l.34.954.913-.435-.434.915.954.34-.954.339.434.914-.913-.434-.34.953-.34-.953-.914.434.435-.914-.954-.339.954-.34-.435-.915.914.435.34-.954zm23.996 8.319l.34.954.913-.435-.434.915.954.339-.954.34.434.914-.913-.434-.34.953-.34-.953-.914.434.435-.914-.954-.34.954-.339-.435-.915.914.435.34-.954zm.886-4.139l.17.477.457-.218-.217.457.477.17-.477.17.217.457-.457-.217-.17.477-.169-.477-.457.217.217-.457-.477-.17.477-.17-.217-.457.457.218.169-.477z" fill="#fff3cc"/><path d="M33.806 23.548c0 23.289 9.609 29.374 18.225 34.891 8.617-5.517 18.227-11.602 18.227-34.891l-18.227-10.89-18.225 10.89z" fill="#fff" fill-opacity=".8"/><path d="M62.104 62.848c0 1.741-4.51 3.152-10.072 3.152S41.96 64.589 41.96 62.848s4.51-3.152 10.073-3.152 10.072 1.411 10.072 3.152z" fill="#e6e6e6"/><path d="M52.032 16l15.503 9.262c0 19.81-8.174 24.987-15.503 29.679V16z" fill="#91ddf8"/><path d="M52.032 16l-15.503 9.262c0 19.81 8.174 24.987 15.503 29.679V16z" fill="#009dd6"/></svg>