<svg xmlns="http://www.w3.org/2000/svg" width="18" height="18" viewBox="0 0 24 24" focusable="false" role="presentation" aria-hidden="true" fill="#be061b">
  <path stroke="none" d="M15.732 1.544l6.664 6.664a5.32 5.32 0 0 1 0 7.524l-6.664 6.664a5.32 5.32 0 0 1-7.524 0l-6.664-6.664a5.32 5.32 0 0 1 0-7.524l6.664-6.664a5.32 5.32 0 0 1 7.524 0zm-5.1 4.057v6.837c0 .72.529 1.302 1.18 1.302.653 0 1.181-.583 1.181-1.302V5.601c0-.72-.528-1.303-1.18-1.303-.652 0-1.18.583-1.18 1.303zm1.338 14.04a1.77 1.77 0 1 0 0-3.54 1.77 1.77 0 0 0 0 3.54z"></path>
</svg>