<svg fill="none" height="48" viewBox="0 0 164 48" width="164" xmlns="http://www.w3.org/2000/svg"><g clip-rule="evenodd" fill-rule="evenodd"><path d="m149.57 46.9884-.203-1.6082c-.017-.158-.056-.2479-.123-.2866-.058-.0606-.181-.0663-.334-.0483-.081.0079-.176.0178-.28.0287-.071.0074-.147.0153-.225.0233-.192.0246-.377.0246-.524.0246-.385 0-.634-.0889-.776-.2649-.14-.174-.196-.524-.196-1.0216v-16.6166c0-.2185-.042-.3443-.14-.403-.072-.0634-.216-.0785-.439-.0785h-.914c-.644.035-1.893.3708-1.907 2.1777v15.7254c0 1.2374.248 2.1039.756 2.6006.483.5014 1.278.7577 2.352.7577.287 0 .591-.0224.937-.0479h.001l.002-.0002c.119-.0088.244-.0179.374-.0266.474-.0596.916-.1504 1.303-.3027.185-.1012.297-.1817.336-.2441.04-.0672.04-.2043 0-.3888zm-78.8359-19.3829c.2721 0 .4351.0246.4986.1466.0768.0974.1157.2696.1157.4929v1.7756c0 .2545-.0389.4352-.1261.5156-.073.104-.2341.1428-.4882.1428h-7.6921c-.7327 0-1.2502.1665-1.5327.4749-.3071.3188-.4607.7909-.4607 1.4001v3.3413h8.622c.2616 0 .4086.0549.4777.1381.0692.0814.1024.2516.1024.5279v1.6299c0 .2129-.0332.3699-.1024.4853-.0691.124-.2161.1741-.4777.1741h-8.622v6.6097c0 1.8637-1.3014 2.1796-1.9119 2.2203h-.9185c-.2142 0-.3706-.035-.4929-.1201-.1118-.0748-.1706-.2365-.1706-.4787v-14.3291c0-.6755.0834-1.3188.2483-1.9374.1564-.6272.4351-1.1617.8399-1.6555.4019-.4702.9374-.86 1.5763-1.1381.6512-.3008 1.4806-.4162 2.4361-.4162zm12.7526 18.4506c0 .455-.1773.7615-.5517.9328-.4209.1844-.8692.3642-1.3517.4919-.4986.1286-.9905.2374-1.5138.3112-.5175.0729-1.0246.1315-1.527.1561-.509.035-.9972.0511-1.4607.0511-1.2588 0-2.3148-.1343-3.1442-.3898-.8379-.2563-1.4882-.5912-1.9849-1.0349-.4796-.4248-.8218-.9365-1.0066-1.5221-.1953-.5723-.2977-1.1967-.2977-1.8334 0-.6924.1233-1.3121.3422-1.9402.2133-.6215.5716-1.1721 1.0636-1.647.5166-.4569 1.1431-.8315 1.9488-1.1201.7991-.2961 1.765-.4389 2.8987-.4389h3.2266v-.4768c0-.3727-.0398-.6963-.1081-1.0132-.0824-.298-.2331-.5591-.4483-.7965-.2304-.2223-.527-.4106-.8929-.5279-.3972-.1268-.8929-.1968-1.5043-.1968-.6588 0-1.3517.0634-2.1195.1788-.7839.1069-1.3896.2394-1.8787.404-.219.052-.3612.0728-.4588.035-.0872-.035-.1469-.1571-.1953-.3321l-.3915-1.6233c-.0805-.3065 0-.508.2503-.5988.7953-.2933 1.6844-.5298 2.6361-.648.9526-.1287 1.8597-.193 2.6958-.193 1.9943 0 3.4484.4399 4.3821 1.3187.928.8798 1.3915 2.1588 1.3915 3.8474zm-3.3904-5.4282h-2.7536c-.3271 0-.6692.0227-1.0437.0634-.3829.0388-.7185.1438-1.0701.3131-.3166.1779-.6143.4078-.8256.7294-.2133.3415-.3252.7946-.3252 1.3651 0 .8117.2825 1.3916.8342 1.7113.5507.3245 1.29.5052 2.2104.5052.1105 0 .2633-.012.4603-.0275l.0971-.0075c.2379-.0095.492-.0246.7507-.0691.1042-.0173.2083-.034.3141-.051l.0007-.0001.0008-.0001.0003-.0001c.1719-.0276.3485-.056.5382-.0887.2929-.0587.581-.1277.8114-.2356zm24.2687 6.361c.369-.1713.556-.4778.556-.9328v-8.6058c0-1.6886-.464-2.9676-1.397-3.8474-.932-.8788-2.392-1.3187-4.3728-1.3187-.8437 0-1.7432.0643-2.7091.193-.9517.1182-1.8361.3547-2.6456.648-.2398.0908-.3384.2923-.2549.5988l.3914 1.6233c.0588.175.1176.2971.2199.3321.0873.0378.2493.017.4531-.035.4844-.1646 1.0977-.2971 1.8645-.404.7631-.1154 1.4787-.1788 2.1233-.1788.6105 0 1.1185.07 1.4892.1968.386.1173.689.3056.913.5279.22.2374.37.4985.436.7965.087.3169.115.6405.115 1.0132v.4768h-3.2214c-1.1413 0-2.1091.1428-2.9139.4389-.7895.2886-1.4199.6632-1.9223 1.1201-.4986.4749-.855 1.0255-1.0701 1.647-.2294.6281-.3451 1.2478-.3451 1.9402 0 .6367.091 1.2611.2929 1.8334.1991.5856.5308 1.0973 1.0143 1.5221.4881.4437 1.1469.7786 1.9915 1.0349.836.2555 1.8749.3898 3.1375.3898.4597 0 .9337-.0161 1.4465-.0511.5121-.0246 1.0191-.0832 1.5521-.1561.517-.0738 1.011-.1826 1.509-.3112.467-.1277.928-.3075 1.347-.4919zm-5.5937-6.361h2.7617v4.2078c-.247.1079-.527.1769-.826.2356-.15.0263-.295.0499-.434.0725-.142.0228-.2768.0447-.4041.0675-.2834.0445-.5421.0596-.7659.0691l-.1413.0108c-.1774.0139-.3098.0242-.416.0242-.928 0-1.6702-.1807-2.2209-.5052-.5517-.3197-.8209-.8996-.8209-1.7113 0-.5705.0948-1.0236.328-1.3651.2142-.3216.4929-.5515.8341-.7294.327-.1693.6834-.2743 1.0692-.3131.3564-.0407.6986-.0634 1.0361-.0634zm64.1197 5.4282c0 .455-.185.7615-.551.9328-.415.1844-.864.3642-1.363.4919-.492.1286-.989.2374-1.506.3112-.514.0729-1.036.1315-1.538.1561-.504.035-.986.0511-1.45.0511-1.265 0-2.309-.1343-3.148-.3898-.82-.2563-1.485-.5912-1.988-1.0349-.474-.4248-.81-.9365-1.004-1.5221-.202-.5723-.303-1.1967-.303-1.8334 0-.6924.116-1.3121.351-1.9402.204-.6215.57-1.1721 1.068-1.647.488-.4569 1.137-.8315 1.938-1.1201.792-.2961 1.773-.4389 2.915-.4389h3.222v-.4768c0-.3727-.039-.6963-.112-1.0132-.08-.298-.241-.5591-.457-.7965-.227-.2223-.516-.4106-.902-.5279-.384-.1268-.879-.1968-1.492-.1968-.651 0-1.368.0634-2.144.1788-.747.1069-1.371.2394-1.855.404-.21.052-.366.0728-.457.035-.105-.035-.168-.1571-.202-.3321l-.398-1.6233c-.08-.3065.003-.508.261-.5988.796-.2933 1.68-.5298 2.633-.648.97-.1287 1.868-.193 2.698-.193 2.001 0 3.466.4399 4.394 1.3187.912.8798 1.39 2.1588 1.39 3.8474zm-3.398-5.4282h-2.75c-.332 0-.683.0227-1.05.0634-.374.0388-.725.1438-1.073.3131-.336.1779-.604.4078-.831.7294-.209.3415-.335.7946-.335 1.3651 0 .8117.293 1.3916.841 1.7113.545.3245 1.296.5052 2.22.5052.11 0 .263-.0121.46-.0276l.095-.0074c.241-.0095.495-.0246.753-.0691l.203-.0325c.213-.0337.425-.0673.652-.1075.296-.0587.565-.1277.815-.2356zm-31.164-8.3427c2.197 0 3.837.5761 4.91 1.6942 1.05 1.1324 1.572 2.6716 1.572 4.644 0 .4928-.054.911-.161 1.2383-.117.3093-.284.5676-.498.7757-.195.1826-.445.3207-.732.3841-.279.0795-.576.1116-.903.1116h-7.628c.007.7739.122 1.3821.33 1.892.219.5052.508.9044.865 1.2261.367.3159.781.5439 1.259.6754.478.1334 1.015.1968 1.567.1968.6 0 1.22-.071 1.805-.2233.586-.1466 1.109-.333 1.549-.5411.292-.1277.516-.0842.633.1637l.781 1.6271c.126.3178.059.5364-.209.6688-.722.4371-1.52.7426-2.378.911-.864.1703-1.693.2706-2.479.2706-2.319 0-4.096-.6225-5.302-1.8769-1.235-1.2336-1.845-3.2032-1.845-5.8974 0-1.2676.168-2.3858.51-3.364.351-.9942.823-1.8229 1.418-2.4899.621-.6858 1.338-1.1976 2.172-1.5391.844-.3661 1.767-.5477 2.764-.5477zm.058 2.7772c-.512 0-.976.1022-1.376.3009-.414.2081-.752.4805-1.041.8202-.276.3509-.512.7454-.683 1.1787-.175.4332-.276.8845-.287 1.3707h6.601c0-.5174-.035-.9914-.147-1.4322-.094-.4352-.251-.8145-.504-1.1513-.234-.3349-.566-.6026-.961-.8013-.415-.1835-.944-.2857-1.602-.2857zm13.624 10.3178.199 1.6082c.039.1845.039.3216 0 .3888-.035.0624-.151.1429-.345.2441-.381.1523-.807.2431-1.301.3027-.116.008-.228.0164-.337.0246-.353.0264-.671.0501-.964.0501-1.091 0-1.861-.2563-2.367-.7577-.495-.4967-.763-1.3632-.763-2.6006v-15.8332c.083-1.7085 1.283-2.0349 1.903-2.0699h.934c.203 0 .355.0151.44.0785.091.0587.146.1845.146.403v16.6166c0 .4976.048.8476.185 1.0216.126.176.401.2649.774.2649.153 0 .334 0 .543-.0246l.06-.0064.001-.0001c.162-.0175.314-.0337.427-.0455.165-.018.28-.0123.336.0483.073.0387.104.1286.129.2866zm-22.097-8.4507c-.268-.9677-.648-1.7794-1.182-2.4709-.522-.6755-1.199-1.2241-2.04-1.5969-.829-.384-1.825-.5761-2.967-.5761-.518 0-1.109.0492-1.777.1353-.649.0851-1.255.2176-1.831.3812l-.014-5.5473c0-.2441-.024-.3803-.111-.438-.071-.0634-.226-.0795-.43-.0795h-.896c-.641.035-1.854.3614-1.893 2.1408v17.3999c0 .1608.031.297.088.419.049.0927.181.1845.333.2488.879.4078 1.807.6641 2.836.8079 1.035.159 2.026.246 3.012.246 1.248 0 2.347-.2072 3.281-.6026.907-.4077 1.658-.9602 2.262-1.6773.583-.7189 1.032-1.5666 1.295-2.541.274-.9791.414-2.0358.414-3.171 0-1.1162-.132-2.1474-.38-3.0783zm-3.349 5.525c-.195.6442-.471 1.1598-.803 1.5533-.355.4078-.769.6916-1.264.8723-.482.1911-1.043.2724-1.625.2724-.39 0-.84-.018-1.336-.0558-.484-.0606-.958-.1533-1.435-.3094v-9.1696c.609-.1901 1.199-.3235 1.761-.3746.567-.0671.991-.0917 1.303-.0917 1.143 0 2.046.4143 2.708 1.2326.646.8202.967 2.0878.967 3.7575 0 .9158-.087 1.6905-.276 2.313zm-25.1098 2.9257.2056 1.6082c.0285.1845.0285.3216 0 .3888-.0445.0624-.1611.1429-.3478.2441-.3801.1523-.8237.2431-1.3024.3027-.1127.0078-.2227.0159-.3297.0238-.3625.0267-.6912.0509-.9737.0509-1.0844 0-1.8749-.2563-2.3669-.7577-.4986-.4967-.7469-1.3632-.7469-2.6006v-15.6913c.0142-1.841 1.2588-2.1768 1.8929-2.2118h.928c.2199 0 .346.0151.4436.0785.0872.0587.1185.1845.1185.403v16.6166c0 .4976.073.8476.219 1.0216.1166.176.3943.2649.7602.2649.1668 0 .327 0 .5337-.0246.1886-.0198.3696-.0388.5014-.052.1611-.018.2796-.0123.3422.0483.0597.0387.108.1286.1223.2866z" fill="#8b929b"/><path d="m71.0517 13.0832c-.401-.3519-.8692-.6253-1.3915-.8429v-.1949c.6389-.3651 1.1754-.8807 1.6067-1.5722.4237-.69249.6426-1.47388.6426-2.32056 0-.86748-.1706-1.61672-.472-2.24486-.3166-.62626-.7384-1.14088-1.2901-1.53442-.5261-.40394-1.1858-.69436-1.9413-.88073-.763-.20339-1.5763-.28853-2.4512-.28853l-6.6087.02838c-.601 0-1.0266.13339-1.2503.40016-.2303.25353-.3412.67166-.3412 1.2194v16.68366c0 .5733.1109.9792.3412 1.2478.2237.2507.6493.3671 1.2503.3671h6.9471c.9356 0 1.7953-.14 2.6152-.4323.7953-.2763 1.4986-.6859 2.0986-1.21.6058-.5316 1.0787-1.1607 1.4295-1.91.3422-.7341.527-1.5457.527-2.4331 0-.5137-.0569-1.0132-.1848-1.5108-.1271-.4881-.3176-.9639-.5612-1.3963-.2436-.438-.5754-.8277-.9659-1.1749zm-2.7494 1.6168c.5754.578.8683 1.3273.8683 2.2373 0 .3198-.0484.6622-.1564 1.0397-.0977.3566-.2863.6944-.5508.9961-.2692.3075-.6151.5591-1.0654.7578-.4275.2071-.9896.2932-1.673.2932h-4.7016v-6.1878h4.73c1.1128 0 1.9631.2952 2.5489.8637zm-2.6664-3.7317h-4.6125v-4.67045h4.7897c.7565 0 1.366.19772 1.7954.60261.4597.39826.6796.9337.6796 1.62239 0 .50517-.0834.91289-.2607 1.22791-.1611.31034-.3839.56384-.6531.74924-.2578.1769-.5507.2923-.8635.3652-.3175.0737-.6067.1031-.8749.1031zm20.4219 10.5666c0 .4579-.181.7691-.5479.9394-.4038.1826-.8597.3472-1.3479.4815-.4815.1334-.9801.2413-1.4967.316-.509.0719-1.0114.1239-1.5233.1589-.4985.0218-.9829.0284-1.436.0284-1.255 0-2.2949-.1154-3.1138-.3699-.8266-.2573-1.4854-.6026-1.9669-1.0311-.4834-.4163-.8114-.9176-1.0143-1.5146-.1876-.5619-.2796-1.1768-.2796-1.8163 0-.6698.1081-1.3007.3318-1.9175.2095-.6235.5611-1.1702 1.0635-1.6262.4844-.4588 1.1223-.8287 1.9148-1.1163.7905-.2942 1.7602-.4342 2.8929-.4342h3.1878v-.4872c0-.3453-.0389-.6821-.1119-.9829-.0739-.3103-.2199-.5657-.4398-.7975-.2237-.2289-.5119-.4058-.8929-.5345-.3896-.1248-.874-.1731-1.4844-.1731-.6341 0-1.346.0483-2.1034.1656-.7602.1154-1.3867.2478-1.854.3944-.2105.0625-.3527.0625-.4598.036-.0881-.0407-.1649-.1438-.1952-.315l-.3991-1.62999c-.0796-.29232.0047-.49098.272-.5799.7821-.30935 1.6503-.52787 2.602-.64991.9583-.12582 1.8512-.18447 2.6806-.18447 1.9707 0 3.421.43611 4.3385 1.30549.9328.86838 1.383 2.14268 1.383 3.81518zm-3.36-5.3708h-2.728c-.327 0-.6778.017-1.0446.0558-.3659.0388-.7261.14-1.0531.314-.328.177-.601.4201-.8304.736-.2199.317-.327.7739-.327 1.3367 0 .8155.2787 1.3774.8294 1.6981.5574.3273 1.2835.491 2.1925.491.1365 0 .3175 0 .5545-.017.2341-.0038.4948-.0284.7536-.0776.2682-.0227.5517-.0728.8398-.1343.2967-.0502.5688-.1334.8133-.2214zm10.0155-5.4136c.3754-.0094.6787-.0161.892-.0161.7972 0 1.4607.0899 1.9688.2763.527.174.9422.4408 1.2389.805.3071.3718.527.8145.6445 1.3708.1261.5439.1811 1.1872.1811 1.9241v7.5652c0 .2053.0426.334.1355.3964.0778.0606.2095.0776.401.0776h2.2349c.206 0 .357-.017.43-.0776.069-.0624.104-.1911.104-.3964v-7.5103c0-1.3074-.139-2.4246-.426-3.3498-.278-.9365-.7211-1.6772-1.3239-2.25904-.5896-.58936-1.3508-.99803-2.2731-1.27048-.9137-.25921-1.9915-.39165-3.2503-.39165-.2436 0-.5374.00662-.8787.02081-.3374.02838-.6834.05203-1.0446.06339-.0696.00535-.139.01046-.2081.01554l-.0002.00002c-.2845.02092-.5628.04138-.822.07714-.3232.03217-.5669.05676-.7621.08041-.7811.13339-1.2977.38692-1.5318.76627-.2607.38502-.3763.911-.3763 1.58929v12.1684c0 .2053.0426.334.1365.3964.0834.0606.2161.0776.4114.0776h2.2209c.2019 0 .345-.017.4322-.0776.0796-.0624.1081-.1911.1081-.3964v-11.773c.508-.0889.9621-.1438 1.3573-.1523zm16.7817 9.8186c.602 0 1.217-.0748 1.817-.2214.61-.1561 1.118-.3245 1.509-.5184.209-.0946.36-.1211.453-.0823.074.0331.15.1419.216.2762l.708 1.6536c.194.2971.126.5364-.181.7105-.778.4352-1.612.7275-2.514.8675-.9.1419-1.744.2043-2.524.2043-2.123 0-3.755-.6366-4.881-1.9232-1.134-1.2818-1.704-3.2013-1.704-5.7422 0-1.1948.166-2.2818.493-3.2505.317-.9744.782-1.8088 1.386-2.4984.591-.69815 1.31-1.22697 2.164-1.59307.843-.37273 1.789-.5572 2.855-.5572.785 0 1.537.08325 2.27.23366.716.16745 1.415.42476 2.063.75586.172.10311.273.19204.304.29231.043.09271.015.23461-.069.42381l-.723 1.68013c-.073.14-.16.2422-.233.2828-.09.0398-.25.0057-.474-.0898-.459-.1703-.927-.3084-1.426-.4295-.492-.141-1.015-.1911-1.576-.1911-.644 0-1.196.1315-1.655.4096-.479.2762-.854.6395-1.141 1.0964-.289.4532-.509.9801-.645 1.578-.132.5893-.196 1.2127-.196 1.857 0 .6688.053 1.2865.172 1.8579.108.5846.311 1.0945.589 1.5297.269.4295.641.7729 1.109 1.0198.477.2507 1.094.368 1.834.368zm19.053-4.9325c0 2.506-.596 4.4396-1.757 5.7971-1.168 1.35-2.911 2.0254-5.228 2.0254-2.298 0-4.003-.6508-5.14-1.9667-1.123-1.3216-1.684-3.2458-1.684-5.7725 0-1.2629.166-2.3688.512-3.3337.332-.9725.801-1.7738 1.413-2.44546.608-.66221 1.345-1.17494 2.186-1.52023.847-.34908 1.775-.52598 2.805-.52598 2.256 0 3.968.68302 5.136 2.0604 1.161 1.37457 1.757 3.26367 1.757 5.68167zm-3.392.0817c0-.6981-.048-1.3462-.156-1.9469-.108-.6111-.288-1.1531-.547-1.6101-.258-.4824-.61-.8438-1.061-1.1115-.442-.2753-.994-.3936-1.683-.3936-.614 0-1.141.1183-1.591.386-.463.2488-.85.6083-1.136 1.0349-.31.4333-.534.9659-.684 1.5704-.132.6083-.2 1.2752-.2 1.9696 0 1.5893.254 2.8295.762 3.7424.517.9034 1.434 1.3424 2.748 1.3424.653 0 1.21-.1325 1.669-.4012.458-.279.82-.6442 1.098-1.1049.269-.4522.468-.9971.595-1.5883.131-.5988.186-1.2374.186-1.8892z" fill="#585d61"/><path d="m32.7783 48c-8.4138 0-32.7783-6.5477-32.7783-14.626 0-8.0701 24.3645-14.6161 32.7783-14.6161 8.404 0 15.2217 6.546 15.2217 14.6161 0 8.0783-6.8177 14.626-15.2217 14.626z" fill="#007a33"/><path d="m25.2682 24.2536c-5.468-3.196-18.64037-16.70809-15.31032-21.96078 3.32022-5.25269 21.87192-.27169 27.34972 2.93426 5.468 3.17878 7.2217 10.03442 3.8917 15.28712-3.3202 5.2627-10.4532 6.9372-15.9311 3.7394z" fill="#c3d600"/><path d="m20.6641 20.7215c1.7429 1.5612 3.3717 2.81 4.6071 3.5321 5.306 3.0975 12.1648 1.6236 15.6074-3.2546-2.3464-1.4196-5.1244-2.2411-8.1014-2.2411-2.7806 0-7.3034.715-12.1131 1.9636z" fill="#154734"/></g></svg>